<svg height="512" viewBox="0 0 58 59" width="512" xmlns="http://www.w3.org/2000/svg"><g id="010---Afro" fill="none" transform="translate(-1)"><path id="Shape" d="m42.81 43.71c16.26-5.64 20.28-21.37 12-32.71-8-11-24-10-24-10h-1.65c-5.7622852-.17875268-11.4781521 1.08265631-16.63 3.67l-8.27 7.67c-7 11.13-2.76 25.93 12.93 31.37z" fill="#2c2f38"/><path id="Shape" d="m41.48 43.71c14.52-5.61 18.23-21.3 10.79-32.71-7.17-11-21.52-10-21.52-10h-1.5c-5.2131917-.17360109-10.3730011 1.09645262-14.91 3.67l-7.42 7.67c-6.29 11.16-2.44 25.94 11.6 31.37z" fill="#393f4a"/><path id="Shape" d="m42.83 36.36c-.64 1.36-3 6.28-5.33 8.93-.9666475 1.0568548-2.5455469 1.2830101-3.77.54-2.3627228-1.1103281-5.0972772-1.1103281-7.46 0-1.2244531.7430101-2.8033525.5168548-3.77-.54-2.29-2.65-4.69-7.57-5.33-8.93.07-.37.15-.73.23-1.1.43-1.92 0-3.6.08-5.52s2-3.45 3.74-2.52c1.38.72 2.2 1.25 3.57 1.94 2.19 1.09 3.87.88 7.05.84 2.66 0 4-1.27 6.94-2.78 1.76-.93 3.68.65 3.74 2.52s-.35 3.6.08 5.52c.08.37.16.74.23 1.1z" fill="#fdd7ad"/><path id="Shape" d="m43 42.62c-.44 2.46-1.4 7.19-2.59 9.38-1.76 3.23-4.66 7-8.61 7h-3.64c-3.95 0-6.85-3.77-8.61-7-1.19-2.19-2.15-6.92-2.59-9.38-.3259261-2.0812062-.25467-4.2053154.21-6.26.64 1.36 3 6.28 5.33 8.93.9666475 1.0568548 2.5455469 1.2830101 3.77.54 2.3627228-1.1103281 5.0972772-1.1103281 7.46 0 1.2244531.7430101 2.8033525.5168548 3.77-.54 2.29-2.65 4.69-7.57 5.33-8.93.4513785 2.0572199.5090616 4.1813144.17 6.26z" fill="#2c2f38"/><path id="Shape" d="m25 38h-2c-.5522847 0-1-.4477153-1-1s.4477153-1 1-1h2c.5522847 0 1 .4477153 1 1s-.4477153 1-1 1z" fill="#393f4a"/><path id="Shape" d="m37 38h-2c-.5522847 0-1-.4477153-1-1s.4477153-1 1-1h2c.5522847 0 1 .4477153 1 1s-.4477153 1-1 1z" fill="#393f4a"/><path id="Shape" d="m29 55c-2.0454634.1383646-3.8247422-1.3873669-4-3.43.1275481-1.5336258 1.4649693-2.6793499 3-2.57h4c1.5350307-.1093499 2.8724519 1.0363742 3 2.57 0 1.93-1.85 3.43-4 3.43z" fill="#fdd7ad"/><path id="Shape" d="m30 45c-1.1924406.0368306-2.2833177-.6678601-2.74-1.77-.3215725-.8579175-.2708344-1.8110699.14-2.63.15-.39 0 .12 1.65-4.91.1858221-.5045975.737413-.7719067 1.24861-.605095.5111969.1668116.7989576.7080145.65139 1.225095-1.67 5-1.53 4.61-1.68 5-.23.62-.29.86-.17 1.15.1480817.3587843.5137401.5781793.9.54.5522847 0 1 .4477153 1 1s-.4477153 1-1 1z" fill="#f9c795"/><path id="Shape" d="m18.35 12.74c-.4484545-.77094-1.433244-1.0383037-2.21-.6-.5469955.3172388-1.1980839.4027345-1.8084379.2374694-.6103539-.1652651-1.1293568-.5675854-1.4415621-1.1174694l-.11-.19c-.3323284-.6154494-.3833447-1.34425347-.14-2 .8546784-2.36253734.1469151-5.00739856-1.7734697-6.62733068-1.92038475-1.61993212-4.64669163-1.87186562-6.83141217-.63127947s-3.36517422 3.71096037-2.95790826 6.19011189c.40726595 2.47915156 2.31600066 4.44204516 4.78279013 4.91849826 1.03016226.1664576 1.84987309.952937 2.05879744 1.9753327.20892434 1.0223957-.2365252 2.0674078-1.11879744 2.6246673-.37418562.2119554-.64874042.5639939-.76316235.9785389-.11442192.414545-.05932033.8575747.15316235 1.2314611l2.81 4.8c3.4848459-3.1999417 7.6337605-5.5902629 12.15-7zm-10.35-4c-.95605412.55056775-2.17737164.22297197-2.72955195-.73215171-.55218031-.95512367-.22664597-2.17699227.72754453-2.73078357.95419051-.5537913 2.1766067-.23031934 2.73200742.72293528.26791466.45983176.34151307 1.00748018.20450505 1.52172945-.13700801.51424927-.47332287.95268722-.93450505 1.21827055z" fill="#cb8252"/><path id="Shape" d="m6.76 27.72c-.39836543.0070847-.76292692-.2229869-.92796136-.5856284-.16503445-.3626414-.09904868-.7886507.16796136-1.0843716.71616773-.7929466 1.47389925-1.5473401 2.27-2.26.26009039-.2651278.64569409-.36427 1.00141007-.2574716.35571597.1067983.62294113.4019425.69398185.7664874.07104068.3645448-.06580677.7384327-.35539192.9709842-2.2 1.99-2.11 2.45-2.85 2.45z" fill="#000"/><g fill="#603e26"><path id="Shape" d="m11.31 23.59c-.3607641-.0006217-.6932259-.1955131-.87-.51l-1.33-2.31c-.17863279-.3108211-.17787524-.693331.0019873-1.0034421s.51150466-.50071.87-.5c.3584953.00071.6893799.192621.8680127.5034421l1.32 2.32c.178104.3084703.1786812.6883921.0015155.9974022-.1771658.3090101-.5053269.5004553-.8615155.5025978z"/><path id="Shape" d="m14.65 21.39c-.357179-.0042012-.6849949-.1986036-.86-.51l-1.21-2.1c-.2761424-.4804877-.1104877-1.0938576.37-1.37.4804877-.2761423 1.0938576-.1104877 1.37.37l1.2 2.1c.1841828.3106058.186601.6963838.0063264 1.0092742-.1802746.3128903-.5152355.5042843-.8763264.5007258z"/><path id="Shape" d="m18.25 19.62c-.3607641-.0006217-.6932259-.1955131-.87-.51l-1.32-2.32c-.2484017-.4748504-.0783237-1.0611063.3856398-1.3292932.4639634-.268187 1.0568642-.1229594 1.3443602.3292932l1.33 2.32c.1841828.3106058.186601.6963838.0063264 1.0092742-.1802746.3128903-.5152355.5042843-.8763264.5007258z"/></g><path id="Shape" d="m6.76 27.72c-.39836543.0070847-.76292692-.2229869-.92796136-.5856284-.16503445-.3626414-.09904868-.7886507.16796136-1.0843716 4.7288632-5.2314308 11.0027965-8.8185374 17.91-10.24.5522847-.1132184 1.0917816.2427153 1.205.795s-.2427153 1.0917816-.795 1.205c-6.4812636 1.3274001-12.3720805 4.6825741-16.82 9.58-.18905916.2094794-.45782176.329333-.74.33z" fill="#2c2f38"/></g></svg>