<svg id="Capa_1" enable-background="new 0 0 512 512" height="512" viewBox="0 0 512 512" width="512" xmlns="http://www.w3.org/2000/svg"><g><g><path d="m240.532 434.903 23.885 39.013-23.885 30.584h-125.619c0-48.894 49.007-69.597 49.007-69.597z" fill="#f8e86a"/><path d="m476.412 57.207-42.621-42.621c-10.618-10.618-28.243-9.098-36.886 3.181l-38.926 55.3 59.952 59.952 55.3-38.926c12.278-8.643 13.798-26.268 3.181-36.886z" fill="#ffb3dd"/><path d="m444.011 224.997-.006-.012.006-.012c14.658-30.514 6.299-67.107-20.153-88.23v-.143c-.089-33.78-23.453-63.041-56.376-70.605l-.16-.037-.017-.035c-14.652-30.469-48.395-46.791-81.378-39.364l-.118.027-.087-.069c-26.461-21.026-63.927-21.024-90.386.004l-.082.065-.008-.002c-33.012-7.492-66.82 8.83-81.487 39.339l-.016.034-.155.036c-32.926 7.561-56.292 36.823-56.382 70.606v.143h-.001c-26.969 18.878-36.316 54.499-22.09 84.187l1.943 4.055-.006.012c-.305.636-.601 1.274-.886 1.915-18.089 40.609 12.471 86.315 56.927 86.315h294.878c44.455 0 75.016-45.706 56.927-86.315-.286-.64-.581-1.279-.887-1.914z" fill="#50e0e0"/><path d="m116.913 229.889c0-78.84 26.565-150.663 70.123-204.666-30.273-3.313-59.826 12.719-73.278 40.701l-.016.034-.155.036c-32.926 7.561-56.292 36.823-56.382 70.606v.143l-.001.001c-26.969 18.878-36.316 54.499-22.091 84.187l1.943 4.055-.006.012c-.305.636-.601 1.274-.886 1.915-18.089 40.609 12.471 86.315 56.927 86.315h34.058c-6.665-26.484-10.236-54.44-10.236-83.339z" fill="#00d6d3"/><path d="m240.532 149.086c.546-.631 1.096-1.249 1.65-1.856 32.422-35.545 88.95-34.279 120.604 1.952 25.424 29.101 40.626 67.36 40.002 109.182-1.33 89.081-75.113 160.828-164.198 159.783-88.726-1.041-160.332-73.29-160.332-162.263 0-40.766 15.035-78.017 39.86-106.519 31.663-36.352 88.277-37.753 120.764-2.135.554.607 1.104 1.226 1.65 1.856z" fill="#dedede"/><path d="m116.913 229.889c0-31.719 4.306-62.299 12.281-91.043-3.937 3.106-7.659 6.597-11.077 10.521-24.825 28.501-39.86 65.752-39.86 106.519 0 60.973 33.631 114.086 83.352 141.816-28.234-48.088-44.696-105.773-44.696-167.813z" fill="#d0d0ce"/><g fill="#ffb3dd"><ellipse cx="144.245" cy="262.085" rx="35.528" ry="28.293"/><ellipse cx="336.818" cy="262.085" rx="35.528" ry="28.293"/></g><circle cx="240.532" cy="243.545" fill="#ff748f" r="31.327"/><path d="m366.15 504.5h-125.618v-69.597h76.611s49.007 20.703 49.007 69.597z" fill="#ffb3dd"/><path d="m443.789 114.273-67.065-67.065c-5.495-5.495-14.404-5.495-19.899 0l-11.328 11.328c-5.495 5.495-5.495 14.404 0 19.899l67.065 67.065c5.495 5.495 14.404 5.495 19.899 0l11.328-11.328c5.495-5.495 5.495-14.404 0-19.899z" fill="#f8e86a"/><path d="m254.922 431.81s63.182 70.921 63.182-12.868-63.182-12.867-63.182-12.867z" fill="#fd5f7e"/><path d="m226.141 431.81s-63.182 70.921-63.182-12.868 63.182-12.867 63.182-12.867z" fill="#fd5f7e"/><path d="m245.331 392.415h-9.599c-14.651 0-26.527 11.877-26.527 26.527 0 14.651 11.877 26.527 26.527 26.527h9.599c14.651 0 26.527-11.877 26.527-26.527.001-14.65-11.876-26.527-26.527-26.527z" fill="#ff748f"/></g><g><path d="m157.48 220.325v14.524c0 4.142 3.358 7.5 7.5 7.5s7.5-3.358 7.5-7.5v-14.524c0-4.143-3.358-7.5-7.5-7.5s-7.5 3.357-7.5 7.5z"/><path d="m308.643 220.325v14.524c0 4.142 3.358 7.5 7.5 7.5s7.5-3.358 7.5-7.5v-14.524c0-4.143-3.358-7.5-7.5-7.5s-7.5 3.357-7.5 7.5z"/><path d="m254.834 291.288c-7.544 8.657-20.978 8.684-28.545 0-2.721-3.123-7.459-3.448-10.582-.727s-3.448 7.459-.727 10.582c13.538 15.535 37.638 15.518 51.162 0 2.721-3.123 2.396-7.86-.727-10.582-3.123-2.721-7.86-2.396-10.581.727z"/><path d="m279.389 243.544c0-21.409-17.418-38.827-38.827-38.827s-38.827 17.418-38.827 38.827 17.418 38.827 38.827 38.827 38.827-17.418 38.827-38.827zm-38.828 23.827c-13.138 0-23.827-10.689-23.827-23.827s10.689-23.827 23.827-23.827 23.827 10.689 23.827 23.827c.001 13.138-10.689 23.827-23.827 23.827z"/><path d="m178.555 199.826c0 4.143 3.358 7.5 7.5 7.5s7.5-3.357 7.5-7.5c0-15.756-12.818-28.574-28.575-28.574s-28.575 12.818-28.575 28.574c0 4.143 3.358 7.5 7.5 7.5s7.5-3.357 7.5-7.5c0-7.484 6.089-13.574 13.575-13.574s13.575 6.089 13.575 13.574z"/><path d="m329.717 199.826c0 4.143 3.358 7.5 7.5 7.5s7.5-3.357 7.5-7.5c0-15.756-12.818-28.574-28.574-28.574s-28.575 12.818-28.575 28.574c0 4.143 3.358 7.5 7.5 7.5s7.5-3.357 7.5-7.5c0-7.484 6.09-13.574 13.575-13.574s13.574 6.089 13.574 13.574z"/><path d="m481.746 51.902-42.621-42.621c-13.89-13.891-36.989-11.934-48.322 4.167l-16.537 23.493c-5.914-2.171-12.579-1.672-18.139 1.498-18.374-16.886-43.778-24.332-68.448-19.881-28.199-20.543-66.029-20.544-94.234 0-34.042-6.128-68.318 10.258-84.808 40.954-33.585 9.189-57.17 38.646-58.81 73.377-27.696 21.547-36.768 59.303-21.446 91.279l.435.908c-17.889 42.265 10.5 88.777 54.537 94.962 14.105 34.606 39.477 64.109 72.998 83.275-1.053 8.594-1.081 19.14-.417 27.166-13.448 7.162-48.49 30.046-48.49 74.02 0 4.142 3.358 7.5 7.5 7.5h251.238c4.142 0 7.5-3.358 7.5-7.5 0-43.974-35.043-66.858-48.49-74.02.668-8.076.636-18.668-.436-27.312 11.388-6.545 22.016-14.402 31.649-23.411 3.025-2.829 3.184-7.575.354-10.601-2.83-3.025-7.576-3.184-10.601-.355-7.687 7.189-16.067 13.576-24.996 19.059-6.895-17.779-22.109-21.462-39.717-12.599-6.99 3.491-13.871 8.652-19.782 13.815-10.634-5.8-19.346-3.741-25.9-4.163-5.809.108-10.883 1.236-16.301 4.162-13.198-11.477-32.453-24.209-47.765-15.788-5.183 2.847-9.103 7.724-11.787 14.716-65.958-40.278-90.766-121.588-62.78-190.384 1.561-3.837-.285-8.212-4.122-9.773-3.837-1.56-8.212.285-9.773 4.122-14.835 36.473-16.002 76.249-5.676 111.508-29.609-8.795-48.946-42.042-33.655-75.369 2.068-4.512-1.131-7.935-1.997-10.421-12.695-26.495-4.44-57.954 19.629-74.802 2.005-1.404 3.199-3.697 3.199-6.145v-.123c.081-30.462 20.872-56.498 50.57-63.318.1-.049 3.528-.562 5.243-4.128 13.233-27.528 43.28-42.035 73.018-35.287 3.825.901 6.366-1.446 6.466-1.494 23.86-18.964 57.192-18.965 81.059 0l.087.069c1.773 1.407 4.088 1.938 6.294 1.444.175.004 31.076-8.578 57.453 14.625-5.61 5.611-5.27 5.208-6.355 6.576-6.823 8.588-6.081 20.892 1.653 28.632 70.501 70.442 68.383 69.392 74.076 71.74 5.171 2.131 11.345 2.283 17.005-.216 14 19.241 16.45 44.659 5.97 66.477-1.715 3.572-.082 6.239.802 8.224 13.709 30.774-4.386 64.585-34.54 73.524 15.641-53.321 4.447-114.005-35.073-159.24-33.13-37.921-91.635-40.997-127.902-6.07-36.13-34.795-94.766-31.968-128.07 6.262-5.462 6.271-10.519 13.024-15.031 20.075-2.337 3.652-1.151 8.69 3.019 10.774 3.378 1.66 7.539.558 9.616-2.689 4.116-6.431 8.727-12.591 13.707-18.308 28.66-32.9 81.014-35 111.092-.293 1.984 2.29 5.159 3.164 8.043 2.201 2.346-.783 3.213-2.157 4.815-3.916 29.268-32.087 80.603-31.146 109.416 1.833 46.775 53.541 51.878 133.806 8.052 193.239-2.458 3.334-1.748 8.029 1.585 10.487 3.363 2.478 8.049 1.72 10.488-1.585 8.35-11.324 15.177-23.47 20.419-36.208 43.929-6.131 72.608-52.589 54.558-95.062 11.275-26.36 7.624-56.453-9.384-79.275l6.237-6.237c6.132-6.132 7.771-15.062 4.961-22.713l23.494-16.538c16.068-11.306 18.089-34.398 4.168-48.318zm-304.5 335.888c7.011-7.149 23.333 4.954 30.862 11.321-8.489 11.797-8.483 27.864.001 39.664-7.25 6.134-23.564 18.217-30.531 11.647-8.564-7.954-7.849-37.963-5.704-49.542.97-4.452 2.226-9.83 5.372-13.09zm-18.566 58.436c2.321 7.846 6.375 15.008 13.607 18.685 15.316 7.822 34.092-4.821 47.171-16.105 4.246 2.316 8.936 3.69 13.605 4.056v44.138h-110.18c2.631-22.107 17.272-39.412 35.797-50.774zm199.561 50.774h-110.179v-44.138c4.707-.389 9.283-1.706 13.601-4.054 10.261 8.945 24.693 19.142 38.239 18.46.494-.266 16.014 1.026 22.542-21.041 18.612 11.414 33.17 28.717 35.797 50.773zm-57.044-111.003c10.709 3.87 10.097 36.505 8.544 47.887-.718 5.244-2.646 14.386-7.079 17.261-7.222 5.001-22.927-6.686-29.648-12.372 8.554-11.926 8.392-28.005.001-39.664 6.325-5.346 20.373-15.906 28.182-13.112zm-55.836 13.918c24.539 0 25.941 38.055 0 38.055-.142 0-9.964 0-9.599 0-17.036-.496-24.422-19.307-14.682-31.118 3.453-4.187 8.384-6.754 14.682-6.937zm125.932-347.537c.419.393 66.209 66.162 67.439 67.436 2.336 2.576 2.27 6.568-.215 9.054-12.154 12.154-11.974 12.35-14.103 12.98-2.358.69-4.846.021-6.519-1.651l-67.065-67.067c-2.209-2.209-2.541-5.678-.843-8.258.317-.602.76-.936 10.887-11.079.759-.573 2.344-3.206 5.931-3.206 1.579.001 3.244.606 4.488 1.791zm97.652 35.58-23.963 16.868-58.781-58.781 16.868-23.964c5.956-8.461 18.117-9.528 25.45-2.195l42.621 42.621c7.316 7.318 6.284 19.481-2.195 25.451z"/></g></g></svg>