<?xml version="1.0" encoding="iso-8859-1"?>
<!-- Generator: Adobe Illustrator 19.0.0, SVG Export Plug-In . SVG Version: 6.00 Build 0)  -->
<svg version="1.1" id="Capa_1" xmlns="http://www.w3.org/2000/svg" xmlns:xlink="http://www.w3.org/1999/xlink" x="0px" y="0px"
	 viewBox="0 0 512 512" style="enable-background:new 0 0 512 512;" xml:space="preserve">
<circle style="fill:#00F4F5;" cx="256.001" cy="289.5" r="215"/>
<path style="fill:#FFF9EB;" d="M152.501,289.5H82.869c0,24.641,3.252,48.519,9.316,71.248c21.236,9.394,44.807,17.004,70.099,22.469
	C155.961,353.958,152.501,322.408,152.501,289.5z"/>
<path style="fill:#00E7EC;" d="M419.817,360.748c17.066-7.549,32.635-16.238,46.364-25.895c3.208-14.935,4.82-30.144,4.82-45.354
	h-41.868C429.133,314.141,425.881,338.019,419.817,360.748z"/>
<path style="fill:#87F8F4;" d="M184.753,125.684c-23.206,6.191-45.21,15.322-65.579,26.989
	c-11.667,20.37-20.798,42.373-26.989,65.579c21.236-9.394,44.807-17.004,70.099-22.469
	C167.749,170.49,175.359,146.92,184.753,125.684z"/>
<path style="fill:#5C87BD;" d="M256.001,393v69.632c24.641,0,48.519-3.252,71.248-9.316c9.394-21.236,17.004-44.807,22.469-70.099
	C320.459,389.54,288.909,393,256.001,393z"/>
<path style="fill:#00E7EC;" d="M327.249,453.316c23.206-6.191,45.21-15.322,65.579-26.989
	c11.667-20.369,20.798-42.373,26.989-65.579c-21.236,9.394-44.807,17.004-70.099,22.469
	C344.253,408.51,336.643,432.08,327.249,453.316z"/>
<g>
	<path style="fill:#87F8F4;" d="M162.284,383.217c5.465,25.292,13.075,48.863,22.469,70.099c22.729,6.064,46.607,9.316,71.248,9.316
		V393C223.093,393,191.543,389.54,162.284,383.217z"/>
	<path style="fill:#87F8F4;" d="M256.001,393c32.908,0,64.458-3.46,93.717-9.783c6.322-29.259,9.783-60.809,9.783-93.717h-103.5V393
		z"/>
	<path style="fill:#87F8F4;" d="M256.001,186c-32.908,0-64.458,3.46-93.717,9.783c-6.322,29.259-9.783,60.809-9.783,93.717h103.5
		V186z"/>
	<path style="fill:#87F8F4;" d="M359.501,289.5h69.632c0-24.641-3.252-48.519-9.316-71.248
		c-21.236-9.394-44.807-17.004-70.099-22.469C356.041,225.042,359.501,256.592,359.501,289.5z"/>
	<path style="fill:#87F8F4;" d="M349.718,195.783c-5.465-25.292-13.075-48.863-22.469-70.099
		c-22.729-6.064-46.607-9.316-71.248-9.316V186C288.909,186,320.459,189.46,349.718,195.783z"/>
</g>
<g>
	<path style="fill:#5C87BD;" d="M419.817,218.252c-6.191-23.206-15.322-45.209-26.989-65.579
		c-20.369-11.667-42.373-20.798-65.579-26.989c9.394,21.236,17.004,44.807,22.469,70.099
		C375.011,201.248,398.581,208.858,419.817,218.252z"/>
	<path style="fill:#5C87BD;" d="M256.001,186v-69.632c-24.641,0-48.519,3.252-71.248,9.316
		c-9.394,21.236-17.004,44.807-22.469,70.099C191.543,189.46,223.093,186,256.001,186z"/>
</g>
<g>
	<path style="fill:#87F8F4;" d="M256.001,462.632V504.5c15.21,0,30.419-1.612,45.354-4.82c9.657-13.729,18.346-29.298,25.895-46.364
		C304.52,459.38,280.642,462.632,256.001,462.632z"/>
	<path style="fill:#87F8F4;" d="M119.174,426.327c11.873,20.728,26.353,39.771,43.005,56.671
		c15.563,7.546,31.843,13.11,48.469,16.682c-9.657-13.729-18.345-29.298-25.895-46.364
		C161.547,447.125,139.543,437.995,119.174,426.327z"/>
</g>
<path style="fill:#517AAC;" d="M429.133,289.5h41.868c0-15.21-1.612-30.419-4.82-45.354c-13.728-9.657-29.298-18.346-46.364-25.895
	C425.881,240.981,429.133,264.859,429.133,289.5z"/>
<path style="fill:#87F8F4;" d="M349.823,482.999c21.031-10.198,40.749-24.013,58.206-41.471
	c17.458-17.458,31.273-37.175,41.471-58.206c-16.9,16.652-35.943,31.132-56.671,43.005
	C380.955,447.055,366.475,466.099,349.823,482.999z"/>
<path style="fill:#517AAC;" d="M419.817,360.748c-6.191,23.206-15.322,45.21-26.989,65.579
	c20.728-11.873,39.771-26.353,56.671-43.005c7.546-15.563,13.11-31.843,16.682-48.469
	C452.453,344.51,436.883,353.199,419.817,360.748z"/>
<g>
	<path style="fill:#87F8F4;" d="M92.185,360.748c-17.066-7.549-32.635-16.238-46.364-25.895
		c3.571,16.625,9.135,32.906,16.682,48.469c16.9,16.652,35.943,31.132,56.671,43.005C107.506,405.958,98.376,383.954,92.185,360.748
		z"/>
	<path style="fill:#87F8F4;" d="M392.828,152.673c-11.873-20.728-26.353-39.771-43.005-56.671
		c-15.563-7.546-31.843-13.11-48.469-16.682c9.657,13.729,18.346,29.298,25.895,46.364
		C350.455,131.875,372.459,141.005,392.828,152.673z"/>
</g>
<path style="fill:#00E7EC;" d="M419.817,218.252c17.066,7.549,32.635,16.238,46.364,25.895
	c-3.571-16.625-9.135-32.906-16.682-48.469c-16.9-16.652-35.943-31.132-56.671-43.005
	C404.496,173.042,413.626,195.046,419.817,218.252z"/>
<g>
	<path style="fill:#87F8F4;" d="M210.647,79.32c-9.657,13.729-18.345,29.298-25.895,46.364c22.729-6.064,46.607-9.316,71.248-9.316
		v-41.86C240.792,74.508,225.582,76.112,210.647,79.32z"/>
	<path style="fill:#87F8F4;" d="M92.185,218.252c-17.066,7.549-32.635,16.238-46.364,25.895c-3.208,14.934-4.82,30.143-4.82,45.353
		h41.868C82.869,264.859,86.121,240.981,92.185,218.252z"/>
	<path style="fill:#87F8F4;" d="M162.179,96.001c-21.031,10.198-40.749,24.013-58.206,41.471
		C86.515,154.93,72.7,174.647,62.502,195.678c16.9-16.652,35.943-31.132,56.671-43.005
		C131.047,131.945,145.527,112.901,162.179,96.001z"/>
</g>
<path style="fill:#FFF9EB;" d="M184.753,125.684c7.549-17.066,16.238-32.635,25.895-46.364
	c-16.625,3.571-32.906,9.135-48.468,16.682c-16.652,16.9-31.133,35.943-43.005,56.671
	C139.543,141.005,161.547,131.875,184.753,125.684z"/>
<path d="M191.16,344.313l2.764,0.907l-1.74,2.417c-2.419,3.362-1.656,8.049,1.706,10.469c1.326,0.954,2.857,1.414,4.375,1.414
	c2.331,0,4.628-1.084,6.094-3.119l1.638-2.276l1.638,2.276c1.466,2.036,3.763,3.119,6.094,3.119c1.517,0,3.049-0.46,4.375-1.414
	c3.362-2.42,4.125-7.106,1.706-10.469l-1.74-2.417l2.765-0.907c3.936-1.291,6.08-5.528,4.789-9.464
	c-1.291-3.937-5.53-6.079-9.464-4.79l-2.663,0.873v-2.913c0-4.143-3.358-7.5-7.5-7.5s-7.5,3.357-7.5,7.5v2.913l-2.663-0.873
	c-3.935-1.288-8.173,0.854-9.464,4.79C185.08,338.784,187.225,343.021,191.16,344.313z"/>
<path d="M304.366,256.393l1.638-2.275l1.638,2.276c1.466,2.036,3.763,3.119,6.094,3.119c1.517,0,3.049-0.46,4.375-1.414
	c3.362-2.42,4.125-7.106,1.706-10.469l-1.74-2.417l2.764-0.907c3.936-1.291,6.08-5.528,4.789-9.464
	c-1.291-3.937-5.529-6.08-9.464-4.79l-2.663,0.873v-2.913c0-4.143-3.358-7.5-7.5-7.5s-7.5,3.357-7.5,7.5v2.913l-2.663-0.873
	c-3.936-1.285-8.173,0.854-9.464,4.79c-1.291,3.936,0.854,8.173,4.789,9.464l2.766,0.907l-1.741,2.418
	c-2.419,3.361-1.656,8.049,1.706,10.468c1.326,0.954,2.857,1.414,4.375,1.414C300.604,259.513,302.9,258.429,304.366,256.393z"/>
<path d="M205.498,140.007v2.913l-2.663-0.873c-3.935-1.287-8.173,0.854-9.464,4.79c-1.291,3.936,0.854,8.173,4.789,9.464
	l2.764,0.907l-1.74,2.417c-2.419,3.362-1.656,8.049,1.706,10.469c1.326,0.954,2.857,1.414,4.375,1.414
	c2.331,0,4.628-1.084,6.094-3.119l1.638-2.276l1.638,2.276c1.466,2.036,3.763,3.119,6.094,3.119c1.517,0,3.049-0.46,4.375-1.414
	c3.362-2.42,4.125-7.106,1.706-10.469l-1.74-2.417l2.765-0.907c3.936-1.291,6.08-5.528,4.789-9.464
	c-1.291-3.937-5.53-6.078-9.464-4.79l-2.663,0.873v-2.913c0-4.143-3.358-7.5-7.5-7.5S205.498,135.864,205.498,140.007z"/>
<path d="M101.155,63.797l2.764,0.907l-1.74,2.417c-2.419,3.362-1.656,8.049,1.706,10.469c1.326,0.954,2.857,1.414,4.375,1.414
	c2.331,0,4.628-1.084,6.094-3.119l1.638-2.276l1.637,2.275c1.466,2.037,3.763,3.12,6.094,3.12c1.517,0,3.049-0.46,4.375-1.414
	c3.362-2.419,4.125-7.106,1.706-10.468l-1.74-2.418l2.765-0.907c3.936-1.291,6.08-5.528,4.789-9.464
	c-1.291-3.937-5.529-6.08-9.464-4.79l-2.663,0.873v-2.913c0-4.143-3.358-7.5-7.5-7.5s-7.5,3.357-7.5,7.5v2.913l-2.663-0.873
	c-3.936-1.285-8.173,0.854-9.464,4.79C95.075,58.269,97.22,62.506,101.155,63.797z"/>
<circle cx="465.501" cy="128.91" r="7.5"/>
<circle cx="465.501" cy="458.93" r="7.5"/>
<circle cx="42.475" cy="468.93" r="7.5"/>
<circle cx="122.481" cy="244.91" r="7.5"/>
<circle cx="45.471" cy="84.9" r="7.5"/>
<circle cx="355.491" cy="57.5" r="7.5"/>
<circle cx="305.491" cy="337.52" r="7.5"/>
<path d="M474.431,247.01c-2.729-14.09-6.84-27.97-12.229-41.24c-1.757-4.331-3.669-8.604-5.702-12.823
	c-0.126-0.321-0.277-0.633-0.449-0.937c-4.197-8.609-8.944-16.96-14.209-24.94c-8.25-12.489-17.84-24.229-28.51-34.899
	s-22.4-20.26-34.891-28.5c-7.979-5.271-16.328-10.02-24.936-14.217c-0.321-0.185-0.654-0.345-0.999-0.479
	c-4.199-2.022-8.453-3.925-12.764-5.674c-11.795-4.785-24.074-8.56-36.559-11.258c-0.09-0.022-0.181-0.037-0.271-0.056
	c-1.461-0.314-2.924-0.622-4.39-0.906c-11.521-2.236-23.268-3.545-35.02-3.939V7.5c0-4.143-3.357-7.5-7.5-7.5
	c-4.143,0-7.5,3.357-7.5,7.5v59.634c-13.348,0.444-26.575,2.077-39.566,4.879c-0.028,0.006-0.056,0.011-0.084,0.018
	c-7.657,1.654-15.233,3.706-22.7,6.169c-9.181,3.027-18.113,6.645-26.768,10.815c-0.281,0.115-0.554,0.249-0.82,0.398
	c-12.83,6.248-25.042,13.724-36.502,22.387c-3.3,2.49-3.95,7.2-1.46,10.5c1.43,1.89,3.61,2.979,5.99,2.979
	c0.447,0,0.887-0.046,1.319-0.123c-5.089,7.132-9.826,14.482-14.214,22.019c-6.676,3.886-13.201,8.044-19.554,12.476
	c4.711-5.849,9.752-11.486,15.138-16.872c2.921-2.93,2.921-7.689,0-10.609c-1.42-1.42-3.3-2.2-5.31-2.2c-1.99,0-3.87,0.78-5.29,2.19
	c0,0-0.01,0-0.01,0.01c-10.67,10.67-20.271,22.41-28.51,34.899c-5.261,7.975-10.01,16.318-14.207,24.921
	c-0.182,0.317-0.34,0.646-0.474,0.986c-2.028,4.209-3.937,8.472-5.689,12.793c-4.823,11.896-8.616,24.283-11.319,36.871
	c-0.016,0.077-0.038,0.152-0.051,0.23c-0.003,0.016-0.003,0.032-0.006,0.049c-0.291,1.362-0.58,2.725-0.844,4.091
	c-2.7,13.96-4.07,28.26-4.07,42.49c0,14.229,1.37,28.529,4.069,42.49c0.265,1.367,0.554,2.73,0.845,4.093
	c0.003,0.016,0.003,0.031,0.006,0.047c0.014,0.079,0.036,0.154,0.052,0.232c2.703,12.585,6.496,24.963,11.318,36.857
	c1.757,4.334,3.67,8.61,5.704,12.83c0.128,0.324,0.279,0.638,0.452,0.941c4.199,8.611,8.95,16.96,14.215,24.938
	c8.25,12.49,17.84,24.23,28.51,34.9c13.08,13.09,27.689,24.479,43.43,33.87c5.379,3.208,10.883,6.18,16.495,8.91
	c0.261,0.144,0.529,0.272,0.805,0.383c15.718,7.569,32.274,13.248,49.311,16.939c0.231,0.063,0.466,0.109,0.703,0.149
	c15.235,3.253,30.848,4.921,46.585,4.921c0.013,0,0.027-0.002,0.04-0.002V512c14.229,0,28.52-1.37,42.479-4.08
	c1.475-0.286,2.947-0.596,4.417-0.912c0.08-0.018,0.161-0.03,0.24-0.049c12.487-2.699,24.768-6.473,36.564-11.259
	c4.311-1.749,8.564-3.652,12.763-5.674c0.35-0.136,0.688-0.298,1.014-0.486c8.603-4.196,16.947-8.942,24.921-14.21
	c12.48-8.24,24.221-17.83,34.891-28.5s20.26-22.41,28.51-34.9c5.266-7.98,10.012-16.331,14.209-24.943
	c0.178-0.313,0.333-0.634,0.462-0.964c2.027-4.211,3.935-8.478,5.688-12.803c4.844-11.947,8.656-24.383,11.362-37.026
	c0.005-0.026,0.011-0.051,0.016-0.077c0.293-1.374,0.585-2.748,0.852-4.126c2.7-13.961,4.07-28.261,4.07-42.49
	C478.501,275.27,477.131,260.97,474.431,247.01z M402.73,142.779c5.395,5.396,10.443,11.045,15.16,16.907
	c-6.363-4.44-12.891-8.607-19.569-12.495c-3.888-6.679-8.05-13.208-12.484-19.565C391.693,132.341,397.338,137.387,402.73,142.779z
	 M387.327,158.182c8.432,14.991,15.411,30.763,20.815,47.107c-15.691-6.065-32.33-11.175-49.792-15.269
	c-0.78-0.183-1.565-0.353-2.347-0.532c-0.722-3.168-1.465-6.32-2.253-9.428c-0.851-3.33-3.84-5.66-7.271-5.66
	c-0.62,0-1.239,0.08-1.85,0.23c-4,1.02-6.44,5.11-5.42,9.12c0.198,0.781,0.381,1.576,0.574,2.361
	c-24.633-4.609-50.193-7.133-76.284-7.545v-54.575c8.706,0.242,17.459,0.884,26.069,1.959
	C324.037,130.251,357.217,141.251,387.327,158.182z M345.256,102.068c1.76,1.795,3.523,3.641,5.255,5.512
	c0.03,0.04,0.06,0.069,0.1,0.109c7.552,8.188,14.555,16.807,20.99,25.792c-12.619-5.648-25.641-10.366-38.965-14.107
	c-4.479-9.814-9.335-19.171-14.548-27.956C327.392,94.323,336.468,97.876,345.256,102.068z M149.811,117.55
	c-0.229-1.894-1.142-3.592-2.582-4.82c5.745-3.554,11.634-6.809,17.652-9.761c0.422-0.16,0.827-0.359,1.214-0.594
	c14.453-6.972,29.635-12.199,45.329-15.612c0.52-0.054,1.027-0.167,1.518-0.325C226.948,83.502,241.351,82,256.001,82
	c13.87,0.002,27.531,1.356,40.834,3.997c6.069,8.865,11.741,18.492,16.954,28.782c-7.385-1.534-14.842-2.782-22.359-3.72
	c-9.199-1.146-18.578-1.83-27.93-2.068V104.5c0-4.141-3.36-7.5-7.5-7.5c-4.141,0-7.5,3.359-7.5,7.5v74.061
	c-26.11,0.407-51.655,2.94-76.292,7.554c4.701-19.061,10.714-37.216,17.952-54.104c4.066-1.027,8.159-1.966,12.279-2.802
	c4.051-0.82,6.681-4.78,5.86-8.83c-0.71-3.49-3.8-6.021-7.35-6.021c-0.5,0-1,0.061-1.49,0.16c-0.42,0.085-0.838,0.179-1.258,0.266
	c1.09-2.151,2.194-4.287,3.328-6.386c1.961-3.64,0.601-8.199-3.039-10.17c-1.091-0.58-2.32-0.899-3.551-0.899
	c-2.77,0-5.3,1.51-6.609,3.949c-3.156,5.848-6.144,11.89-8.977,18.098c-13.334,3.741-26.352,8.451-38.951,14.091
	c2.522-3.522,5.128-6.991,7.827-10.398C149.48,121.5,150.041,119.54,149.811,117.55z M160.068,282
	c0.446-27.459,3.361-54.362,8.554-79.897c25.673-5.238,52.438-8.098,79.879-8.539V282H160.068z M248.501,297v88.434
	c-27.459-0.445-54.363-3.36-79.901-8.554c-5.235-25.685-8.094-52.45-8.535-79.88H248.501z M124.684,158.17
	c14.991-8.433,30.762-15.41,47.105-20.814c-6.065,15.692-11.174,32.333-15.268,49.793c-0.183,0.778-0.353,1.563-0.531,2.343
	c-3.158,0.722-6.305,1.466-9.429,2.258c-10.01,2.54-19.88,5.46-29.34,8.689c-1.9,0.65-3.43,1.99-4.31,3.79
	c-0.881,1.8-1.011,3.83-0.37,5.73c1.04,3.03,3.89,5.08,7.1,5.08c0.82,0,1.64-0.141,2.42-0.41c9.04-3.07,18.46-5.86,28.01-8.29
	c0.061-0.021,0.12-0.03,0.181-0.04c0.783-0.199,1.574-0.384,2.36-0.579c-4.608,24.631-7.132,50.189-7.544,76.279H90.491
	c0.242-8.701,0.883-17.441,1.949-26.04l0.011-0.04C96.759,221.452,107.757,188.276,124.684,158.17z M84.931,395.649
	c-2.215,0-4.268,0.956-5.702,2.63c-3.563-5.766-6.83-11.689-9.794-17.753c-0.139-0.353-0.307-0.693-0.499-1.022
	c-7.013-14.55-12.288-29.892-15.719-45.77c-0.047-0.316-0.111-0.629-0.198-0.937c-2.974-14.08-4.515-28.57-4.518-43.298
	c0.002-13.872,1.356-27.536,3.999-40.842c5.128-3.512,10.545-6.93,16.191-10.168c1.73-1,2.98-2.61,3.5-4.551
	c0.521-1.93,0.261-3.949-0.739-5.689c-1.33-2.32-3.83-3.76-6.511-3.76c-1.3,0-2.59,0.34-3.729,0.989
	c-1.108,0.637-2.198,1.292-3.293,1.942c2.905-9.307,6.458-18.385,10.651-27.175c1.833-1.79,3.71-3.583,5.611-5.347
	c8.193-7.559,16.816-14.565,25.807-21.005c-5.844,13.057-10.688,26.545-14.489,40.354c-0.313,0.465-0.582,0.964-0.788,1.501
	c-0.406,1.054-0.558,2.162-0.476,3.256c-2.949,11.497-5.186,23.202-6.664,35.054c-1.156,9.194-1.84,18.577-2.078,27.94h-4.492
	c-4.141,0-7.5,3.359-7.5,7.5c0,4.13,3.359,7.5,7.5,7.5h74.061c0.406,26.117,2.939,51.659,7.554,76.293
	c-19.06-4.702-37.215-10.715-54.103-17.954c-1.028-4.069-1.967-8.166-2.802-12.29c-0.7-3.49-3.79-6.01-7.34-6.01
	c-0.5,0-1,0.05-1.5,0.149c-4.051,0.82-6.681,4.78-5.86,8.84v0.011c0.085,0.418,0.178,0.834,0.265,1.252
	c-2.148-1.088-4.28-2.19-6.375-3.322c-1.1-0.59-2.33-0.9-3.56-0.9c-2.76,0-5.29,1.511-6.6,3.94c-1.971,3.64-0.601,8.2,3.039,10.16
	c5.846,3.154,11.885,6.142,18.091,8.974c3.742,13.331,8.452,26.346,14.09,38.943c-3.516-2.519-6.979-5.122-10.381-7.817
	C88.241,396.21,86.631,395.649,84.931,395.649z M109.28,436.229c-5.399-5.399-10.451-11.052-15.172-16.917
	c6.361,4.439,12.889,8.606,19.566,12.493c3.876,6.659,8.024,13.167,12.442,19.504C120.255,446.593,114.622,441.571,109.28,436.229z
	 M248.501,496.862c-11.256-0.405-22.417-1.721-33.378-3.914c-3.514-5.134-6.919-10.534-10.131-16.138
	c-1.341-2.319-3.83-3.76-6.511-3.76c-1.31,0-2.59,0.34-3.729,1c-3.58,2.06-4.82,6.64-2.771,10.22c0,0,0,0.01,0,0.021
	c0.627,1.089,1.271,2.158,1.909,3.233c-9.318-2.914-18.426-6.49-27.253-10.699c-1.804-1.853-3.574-3.706-5.246-5.515
	c-7.554-8.189-14.556-16.808-20.992-25.793c13.065,5.847,26.563,10.695,40.382,14.498c1.212,0.811,2.654,1.276,4.171,1.276
	c0.177,0,0.352-0.015,0.528-0.027c11.506,2.954,23.22,5.194,35.082,6.676c9.21,1.147,18.6,1.83,27.94,2.069v26.853H248.501z
	 M362.19,461.45c0.229,1.895,1.144,3.594,2.587,4.823c-5.768,3.563-11.693,6.83-17.759,9.795c-0.343,0.136-0.674,0.299-0.993,0.485
	c-14.551,7.015-29.893,12.292-45.771,15.726c-0.301,0.045-0.597,0.107-0.888,0.188c-11.703,2.477-23.692,3.953-35.865,4.384V464.5
	c0-4.004-3.145-7.268-7.096-7.479c-1.298-1.169-3.002-1.898-4.884-1.931c-9.7-0.15-19.49-0.84-29.1-2.04
	c-34.465-4.301-67.642-15.299-97.749-32.232c-8.434-14.992-15.413-30.763-20.815-47.106c15.692,6.065,32.334,11.174,49.794,15.268
	c0.778,0.183,1.562,0.353,2.342,0.531c0.707,3.091,1.435,6.172,2.209,9.23c0.02,0.069,0.029,0.13,0.05,0.199
	c0,0.011,0.01,0.011,0.01,0.011c2.53,9.989,5.45,19.859,8.68,29.329c1.03,3.04,3.891,5.08,7.101,5.08c0.819,0,1.63-0.14,2.42-0.399
	c1.89-0.65,3.42-2,4.31-3.79c0.88-1.8,1.01-3.84,0.36-5.73c-3.09-9.08-5.9-18.569-8.34-28.189l-0.021-0.08
	c-0.192-0.758-0.371-1.522-0.558-2.282c24.634,4.609,50.196,7.134,76.289,7.546v4.065c0,4.13,3.359,7.5,7.5,7.5
	c4.14,0,7.5-3.37,7.5-7.5v-4.076c3.827-0.061,7.655-0.152,11.45-0.304c10.199-0.4,20.43-1.15,30.409-2.21
	c4.11-0.44,7.101-4.141,6.67-8.25c-0.409-3.83-3.609-6.71-7.449-6.71c-0.271,0-0.54,0.02-0.811,0.04
	c-9.66,1.029-19.56,1.75-29.42,2.14c-3.608,0.147-7.232,0.236-10.85,0.295v-191.86c27.452,0.445,54.35,3.359,79.881,8.55
	c0.705,3.461,1.383,6.935,1.999,10.424c3.97,22.484,6.155,45.815,6.54,69.46h-40.921c-4.141,0-7.5,3.359-7.5,7.5
	c0,4.13,3.359,7.5,7.5,7.5h40.933c-0.494,30.371-4.006,60.063-10.282,87.974l-0.002-0.014c-0.63-3.59-3.729-6.2-7.38-6.2
	c-0.43,0-0.87,0.04-1.31,0.12c-1.97,0.35-3.69,1.439-4.84,3.08c-1.15,1.649-1.591,3.64-1.24,5.609c0.64,3.591,3.74,6.19,7.38,6.19
	c0.44,0,0.88-0.03,1.31-0.11c1.99-0.352,3.656-1.467,4.758-2.987c-4.777,19.867-10.967,38.776-18.483,56.314
	c-4.071,1.028-8.169,1.967-12.294,2.803c-1.96,0.4-3.65,1.54-4.76,3.211c-1.11,1.67-1.5,3.67-1.101,5.63
	c0.71,3.489,3.801,6.02,7.34,6.02c0.5,0,1.011-0.05,1.5-0.149c0.422-0.085,0.842-0.18,1.263-0.268
	c-1.089,2.148-2.191,4.28-3.323,6.377c-0.95,1.771-1.16,3.79-0.59,5.71c0.58,1.92,1.87,3.5,3.63,4.45c1.09,0.59,2.32,0.9,3.55,0.9
	h0.01c2.761,0,5.29-1.511,6.601-3.94c3.155-5.847,6.142-11.886,8.974-18.092c13.332-3.742,26.347-8.452,38.943-14.09
	c-2.519,3.516-5.123,6.98-7.818,10.382C362.521,457.49,361.961,459.46,362.19,461.45z M340.217,441.633
	c6.063-15.688,11.171-32.326,15.263-49.783c0.615-2.624,1.198-5.264,1.764-7.912c1.339,2.154,3.707,3.542,6.346,3.542
	c0.62,0,1.25-0.08,1.85-0.229c14.825-3.763,29.119-8.305,42.682-13.542c-5.396,16.32-12.357,32.097-20.799,47.111
	C372.331,429.252,356.56,436.23,340.217,441.633z M359.281,373.849c4.677-24.807,7.239-50.558,7.655-76.849h54.574
	c-0.242,8.726-0.883,17.482-1.959,26.08c-1.361,10.888-3.395,21.647-6.066,32.223c-16.12,6.911-33.487,12.781-51.734,17.407
	C360.849,372.938,360.019,373.329,359.281,373.849z M402.73,436.229c-5.402,5.399-11.057,10.451-16.925,15.172
	c4.442-6.364,8.611-12.895,12.5-19.575c6.681-3.889,13.212-8.051,19.569-12.487C413.162,425.195,408.119,430.838,402.73,436.229z
	 M443.43,378.754c-1.811,1.77-3.685,3.56-5.62,5.346c-8.187,7.554-16.805,14.557-25.79,20.993
	c5.647-12.617,10.363-25.638,14.104-38.96c9.814-4.478,19.167-9.333,27.956-14.548C451.176,360.888,447.623,369.965,443.43,378.754z
	 M459.502,330.334c-8.86,6.064-18.491,11.726-28.777,16.932c1.531-7.374,2.777-14.819,3.715-22.326
	c1.147-9.218,1.83-18.601,2.069-27.939h26.843C462.951,308.296,461.667,319.437,459.502,330.334z M366.921,282
	c-0.387-24.51-2.65-48.72-6.771-72.07c-0.25-1.413-0.523-2.819-0.788-4.229c19.068,4.702,37.23,10.717,54.124,17.958
	c1.028,4.07,1.968,8.167,2.804,12.292c0.7,3.489,3.79,6.01,7.34,6.01c0.5,0,1.01-0.05,1.5-0.15c4.05-0.819,6.68-4.79,5.86-8.84
	c-0.085-0.422-0.18-0.842-0.267-1.263c2.148,1.088,4.28,2.191,6.377,3.323c1.09,0.591,2.32,0.9,3.55,0.9
	c2.771,0,5.301-1.51,6.61-3.939c1.96-3.631,0.6-8.19-3.03-10.15c0-0.01,0-0.01-0.01-0.01c-5.848-3.154-11.887-6.141-18.093-8.973
	c-3.743-13.333-8.454-26.35-14.094-38.95c3.515,2.517,6.977,5.119,10.378,7.812c1.34,1.06,2.949,1.63,4.649,1.63
	c2.216,0,4.268-0.965,5.704-2.64c3.56,5.761,6.824,11.679,9.787,17.737c0.141,0.358,0.311,0.705,0.507,1.039
	c7.008,14.536,12.281,29.862,15.714,45.723c0.011,0.077,0.015,0.153,0.028,0.23c0.048,0.271,0.113,0.535,0.188,0.795
	c2.464,11.671,3.932,23.626,4.363,35.765H366.921z"/>
<path d="M225.57,123.069c1.391,1.261,3.181,1.95,5.04,1.95c0.221,0,0.46-0.01,0.69-0.029c4.12-0.381,7.16-4.03,6.79-8.15
	c-0.17-1.88-1.03-3.61-2.43-4.87c-1.551-1.41-3.61-2.11-5.721-1.92c-2,0.18-3.8,1.13-5.08,2.67c-1.29,1.54-1.89,3.49-1.71,5.48
	C223.32,120.08,224.181,121.81,225.57,123.069z"/>
<path d="M286.411,455.93c-1.551-1.41-3.631-2.11-5.721-1.92h-0.01c-1.99,0.18-3.79,1.13-5.07,2.67c-1.29,1.54-1.89,3.49-1.71,5.48
	c0.17,1.88,1.03,3.609,2.431,4.869c1.38,1.261,3.17,1.95,5.029,1.95c0.24,0,0.471-0.01,0.69-0.029c4.12-0.381,7.17-4.04,6.79-8.15
	C288.671,458.92,287.811,457.189,286.411,455.93z"/>
<path d="M281.001,282c-4.141,0-7.5,3.359-7.5,7.5c0,4.13,3.359,7.5,7.5,7.5c4.14,0,7.5-3.37,7.5-7.5
	C288.501,285.359,285.141,282,281.001,282z"/>
<path d="M433.021,258.58c-1.55-1.41-3.62-2.101-5.72-1.91c-2,0.18-3.8,1.13-5.08,2.67c-1.28,1.53-1.89,3.479-1.71,5.479
	c0.17,1.87,1.03,3.601,2.43,4.87c1.38,1.25,3.17,1.95,5.03,1.95c0.22,0,0.46-0.02,0.69-0.04c4.119-0.37,7.159-4.03,6.79-8.149
	C435.28,261.58,434.421,259.85,433.021,258.58z"/>
<path d="M78.971,320.41c1.39,1.26,3.18,1.949,5.04,1.949c0.23,0,0.46-0.01,0.69-0.029c1.989-0.181,3.8-1.13,5.079-2.67
	c1.28-1.54,1.891-3.48,1.711-5.48c-0.171-1.87-1.04-3.6-2.431-4.87c-1.55-1.41-3.63-2.1-5.72-1.92c-2,0.19-3.8,1.13-5.08,2.67
	c-1.29,1.54-1.89,3.49-1.71,5.48C76.721,317.42,77.581,319.149,78.971,320.41z"/>
<path d="M337.971,160.649c0.81,0,1.63-0.14,2.42-0.409c3.91-1.33,6-5.601,4.67-9.521c0,0,0,0,0-0.01c-1.04-3.03-3.89-5.07-7.1-5.07
	c-0.82,0-1.63,0.14-2.42,0.4c-3.91,1.34-6.011,5.609-4.681,9.52C331.9,158.6,334.751,160.649,337.971,160.649z"/>
<path d="M256.001,427c-4.141,0-7.5,3.359-7.5,7.5c0,4.13,3.359,7.5,7.5,7.5c4.14,0,7.5-3.37,7.5-7.5
	C263.501,430.359,260.141,427,256.001,427z"/>
<g>
</g>
<g>
</g>
<g>
</g>
<g>
</g>
<g>
</g>
<g>
</g>
<g>
</g>
<g>
</g>
<g>
</g>
<g>
</g>
<g>
</g>
<g>
</g>
<g>
</g>
<g>
</g>
<g>
</g>
</svg>
