<?xml version="1.0" encoding="iso-8859-1"?>
<!-- Generator: Adobe Illustrator 19.0.0, SVG Export Plug-In . SVG Version: 6.00 Build 0)  -->
<svg version="1.1" id="Capa_1" xmlns="http://www.w3.org/2000/svg" xmlns:xlink="http://www.w3.org/1999/xlink" x="0px" y="0px"
	 viewBox="0 0 482.812 482.812" style="enable-background:new 0 0 482.812 482.812;" xml:space="preserve">
<path style="fill:#93CAE2;" d="M472.137,9.409c-2.667,2.224-5.333,4.432-8,6.624C335.587,121.174,177.192,183.164,11.425,193.209
	l-3.288,0.2l88,88l40-104l96,72l32-112l104,72l8-128l96,48V9.409z"/>
<g>
	<path style="fill:#FBCC34;" d="M8.001,265.409c2.856,1.776,5.72,3.544,8.6,5.28c136.359,83.231,296.072,119.899,455.08,104.48
		l3.128-0.312l-66.672,98.552l-56-96l-80,88l-40-104l-96,80l-24-120l-88,64l-16.128-120"/>
	<circle style="fill:#FBCC34;" cx="416.137" cy="273.409" r="16"/>
</g>
<circle style="fill:#06AAE9;" cx="48.137" cy="441.409" r="16"/>
<circle style="fill:#ED1C24;" cx="112.137" cy="65.409" r="16"/>
<path d="M476.337,136.217c2.362-1.457,3.8-4.033,3.8-6.808v-120c0.004-4.418-3.575-8.003-7.993-8.007
	c-1.891-0.002-3.721,0.667-5.167,1.887c-2.613,2.208-5.248,4.395-7.904,6.56C331.984,114.201,175.096,175.599,10.937,185.225
	l-3.296,0.184c-4.41,0.275-7.761,4.073-7.486,8.483c0.121,1.945,0.949,3.779,2.326,5.157l88,88c1.497,1.506,3.532,2.355,5.656,2.36
	c0.559,0,1.116-0.057,1.664-0.168c2.651-0.563,4.837-2.43,5.808-4.96l36.192-94.12l87.536,65.648
	c3.534,2.652,8.548,1.937,11.2-1.597c0.588-0.784,1.027-1.669,1.296-2.611l28.928-101.264l94.824,65.648
	c3.627,2.523,8.613,1.627,11.135-2.001c0.836-1.202,1.326-2.61,1.417-4.071l7.2-115.944l85.224,42.64
	C471.046,137.834,473.987,137.685,476.337,136.217L476.337,136.217z M93.089,267.049l-66.848-66.848
	c32.86-2.566,65.532-7.145,97.832-13.712L93.089,267.049z M227.641,236.033l-74.664-56c33.847-8.191,67.114-18.613,99.584-31.2
	L227.641,236.033z M361.033,194.761l-82.008-56.8c30.357-13.064,59.868-28.013,88.36-44.76L361.033,194.761z M464.137,116.465
	l-74.12-37.064c25.691-16.268,50.438-33.982,74.12-53.056V116.465z"/>
<path d="M474.041,366.913l-3.144,0.304c-157.306,15.573-315.389-20.725-450.144-103.36c-2.848-1.717-5.688-3.464-8.52-5.24
	c-3.749-2.338-8.684-1.193-11.021,2.556c-0.987,1.583-1.389,3.46-1.139,5.308l16.136,120c0.587,4.379,4.614,7.453,8.993,6.865
	c1.315-0.176,2.566-0.677,3.639-1.457l77.896-56.656l21.56,107.776c0.862,4.333,5.074,7.147,9.408,6.285
	c1.31-0.261,2.534-0.845,3.56-1.701l87.408-72.856l36,93.6c1.583,4.125,6.21,6.186,10.335,4.603
	c1.169-0.448,2.216-1.165,3.057-2.091l72.664-79.928l50.496,86.488c1.378,2.391,3.89,3.902,6.648,4h0.264
	c2.654,0,5.135-1.315,6.624-3.512l66.68-98.544c2.473-3.662,1.509-8.634-2.153-11.107
	C477.747,367.205,475.892,366.734,474.041,366.913z M30.281,371.049l-12.112-90.088c25.636,15.249,52.134,29,79.36,41.184
	L30.281,371.049z M141.345,426.657l-18.768-93.856c30.672,12.414,62.136,22.773,94.184,31.008L141.345,426.657z M274.945,450.425
	l-30.808-80.16c30.08,6.503,60.541,11.101,91.2,13.768L274.945,450.425z M408.633,458.425l-42.184-72.32
	c30.76,1.368,61.575,0.802,92.264-1.696L408.633,458.425z"/>
<path d="M392.137,273.409c0,13.255,10.745,24,24,24s24-10.745,24-24s-10.745-24-24-24S392.137,260.154,392.137,273.409z
	 M424.137,273.409c0,4.418-3.582,8-8,8s-8-3.582-8-8s3.582-8,8-8S424.137,268.991,424.137,273.409z"/>
<path d="M48.137,417.409c-13.255,0-24,10.745-24,24s10.745,24,24,24s24-10.745,24-24S61.391,417.409,48.137,417.409z
	 M48.137,449.409c-4.418,0-8-3.582-8-8s3.582-8,8-8s8,3.582,8,8S52.555,449.409,48.137,449.409z"/>
<path d="M136.137,65.409c0-13.255-10.745-24-24-24s-24,10.745-24,24s10.745,24,24,24S136.137,78.664,136.137,65.409z
	 M104.137,65.409c0-4.418,3.582-8,8-8c4.418,0,8,3.582,8,8s-3.582,8-8,8C107.718,73.409,104.137,69.827,104.137,65.409z"/>
<path d="M10.481,87.066l11.314-11.314L37.792,91.75l-11.314,11.314L10.481,87.066z"/>
<path d="M328.137,33.409h16v24h-16V33.409z"/>
<path d="M218.481,27.752l15.998-15.998l11.314,11.314l-15.998,15.998L218.481,27.752z"/>
<path d="M146.484,131.747l15.998-15.998l11.314,11.314l-15.998,15.998L146.484,131.747z"/>
<path d="M426.486,159.068l11.314-11.314l15.998,15.998l-11.314,11.314L426.486,159.068z"/>
<path d="M288.137,225.409h16v24h-16V225.409z"/>
<path d="M330.486,323.74l15.998-15.998l11.314,11.314l-15.998,15.998L330.486,323.74z"/>
<path d="M146.485,279.064l11.314-11.314l15.998,15.998l-11.314,11.314L146.485,279.064z"/>
<path d="M200.137,433.409h16v24h-16V433.409z"/>
<path d="M74.441,391.069l11.314-11.314l15.998,15.998l-11.314,11.314L74.441,391.069z"/>
<path d="M82.45,467.751l15.998-15.998l11.314,11.314l-15.998,15.998L82.45,467.751z"/>
<path d="M330.484,459.747l15.998-15.998l11.314,11.314l-15.998,15.998L330.484,459.747z"/>
<g>
</g>
<g>
</g>
<g>
</g>
<g>
</g>
<g>
</g>
<g>
</g>
<g>
</g>
<g>
</g>
<g>
</g>
<g>
</g>
<g>
</g>
<g>
</g>
<g>
</g>
<g>
</g>
<g>
</g>
</svg>
