<svg height="512" viewBox="0 0 60 60" width="512" xmlns="http://www.w3.org/2000/svg"><g id="Page-1" fill="none" fill-rule="evenodd"><g id="029---Devil-Horns" fill-rule="nonzero" transform="translate(0 -1)"><path id="Shape" d="m57 42c.0736032 6.0741305-1.6597857 12.0330898-4.98 17.12-.3682335.5508014-.9874467.8810484-1.65.88-.4006502.0026681-.7921591-.1196784-1.12-.35-.4413777-.2939955-.7461324-.7529941-.8457951-1.2738731-.0996628-.5208791.0141237-1.0599595.3157951-1.4961269 2.8650686-4.428384 4.3543674-9.6061331 4.28-14.88 0-13.79-10.32-24-23-24s-23 10.21-23 24c-.0743674 5.2738669 1.41493139 10.451616 4.28 14.88.4001375.5894882.4553915 1.3476686.1449485 1.9889419-.3104431.6412734-.9394195 1.068215-1.65000003 1.1200001s-1.39481102-.2794538-1.79494847-.868942c-3.32021431-5.0869102-5.05360316-11.0458695-4.98-17.12-.04231208-5.3345505 1.39788032-10.5760199 4.16-15.14 4.8332573-7.9963738 13.4964263-12.8827929 22.84-12.8827929s18.0067427 4.8864191 22.84 12.8827929c2.7621197 4.5639801 4.2023121 9.8054495 4.16 15.14z" fill="#607d8b"/><path id="Shape" d="m52.84 26.86c-4.8235946-8.003377-13.4954599-12.8860472-22.84-12.86-.5 0-1 .015-1.5.042 8.7992015.4682127 16.7933484 5.2699453 21.34 12.818 2.7621197 4.5639801 4.2023121 9.8054495 4.16 15.14.0736032 6.0741305-1.6597857 12.0330898-4.98 17.12-.0479719.063061-.100087.1228598-.156.179.1130094.1331393.2427505.2511162.386.351.3278409.2303216.7193498.3526681 1.12.35.6625533.0010484 1.2817665-.3291986 1.65-.88 3.3202143-5.0869102 5.0536032-11.0458695 4.98-17.12.0423121-5.3345505-1.3978803-10.5760199-4.16-15.14z" fill="#37474f"/><path id="Shape" d="m19.11 16.3c-4.968106 2.2173041-9.13830756 5.9024362-11.95 10.56-1.85-1.16-6.16-4.7-6.16-12.54 0-7.22 5.21-10.79 8.11-12.22.34368686-.1645738.7510344-.119517 1.0504461.11619009.2994117.23570708.4388414.62109194.3595539.99380991-.78 3.93-1.38 12.6 8.59 13.09z" fill="#f44335"/><path id="Shape" d="m10.52 3.21c.0792875-.37271797-.0601422-.75810283-.3595539-.99380991-.2994117-.23570709-.70675924-.28076389-1.0504461-.11619009-.54007981.26793466-1.06610045.56332061-1.576.885.00419546.07528958-.00050366.15081124-.014.225-.78 3.93-1.38 12.6 8.59 13.09-4.3842642 1.9573671-8.15699259 5.0649093-10.918 8.993.59944792.5896596 1.25905163 1.1148624 1.968 1.567 2.81169244-4.6575638 6.981894-8.3426959 11.95-10.56-9.97-.49-9.37-9.16-8.59-13.09z" fill="#c81e1e"/><path id="Shape" d="m59 14.32c0 7.84-4.31 11.38-6.16 12.54-2.8116924-4.6575638-6.981894-8.3426959-11.95-10.56 9.97-.49 9.37-9.16 8.59-13.09-.0792875-.37271797.0601422-.75810283.3595539-.99380991.2994117-.23570709.7067592-.28076389 1.0504461-.11619009 2.9 1.43 8.11 5 8.11 12.22z" fill="#f44335"/><path id="Shape" d="m50.89 2.1c-.3064277-.14354617-.6646629-.12238942-.9520642.05622725-.2874013.17861668-.4649776.49046076-.4719358.82877275 4.050276 2.33603098 6.5424299 6.65934976 6.534 11.335 0 5.662-2.246 9.073-4.192 10.973.359.51.707 1.03 1.032 1.567 1.85-1.16 6.16-4.7 6.16-12.54 0-7.22-5.21-10.79-8.11-12.22z" fill="#c81e1e"/><path id="Shape" d="m51.322 1.2c-.6838678-.32636198-1.4934483-.23821519-2.0910562.22767335-.597608.46588853-.8806026 1.22950123-.7309438 1.97232665.446 2.254.88 6.439-1.236 9.15-1.275 1.631-3.359 2.544-6.186 2.727-7.0722119-3.0413852-15.0837881-3.0413852-22.156 0-2.827-.183-4.911-1.1-6.186-2.727-2.116-2.711-1.682-6.9-1.238-9.137.1579503-.74705193-.123244-1.51885055-.7247408-1.98920832-.6014968-.47035778-1.41832237-.55718735-2.1052592-.22379168-3.237 1.6-8.668 5.425-8.668 13.12 0 7.36 3.614 11.18 5.831 12.838-2.53770489 4.533317-3.85758877 9.6467904-3.831 14.842-.07303332 6.2757864 1.71903166 12.431942 5.149 17.688.93198052 1.3702185 2.79828154 1.7254805 4.1685.7935 1.3702185-.9319805 1.7254805-2.7982815.7935-4.1685-2.75621841-4.2592015-4.18691096-9.2403503-4.111-14.313 0-12.9 9.663-23 22-23s22 10.1 22 23c.075911 5.0726497-1.3547816 10.0537985-4.111 14.313-.9317043 1.3704946-.5759945 3.2367955.7945001 4.1684999 1.3704945.9317043 3.2367955.5759946 4.1684999-.7944999 3.429315-5.255936 5.2210113-11.4116726 5.148-17.687.0265888-5.1952096-1.2932951-10.308683-3.831-14.842 2.217-1.658 5.831-5.478 5.831-12.838 0-7.695-5.431-11.52-8.678-13.12zm-49.322 13.12c0-6.613 4.731-9.933 7.539-11.3-.514 2.58-.985 7.426 1.621 10.765 1.2167131 1.5055391 2.8950196 2.5688882 4.776 3.026-3.6348021 2.1525633-6.73174908 5.1045119-9.056 8.632-1.912-1.477-4.88-4.787-4.88-11.123zm49.2 44.242c-.3188566.4443608-.9300189.5608774-1.39.265-.4566828-.3104213-.5753176-.9322468-.265-1.389 2.9798923-4.5918038 4.5303229-9.9645416 4.455-15.438 0-14.019-10.542-25-24-25s-24 10.981-24 25c-.07472835 5.4736641 1.47640296 10.8464182 4.457 15.438.2009619.2959945.2287471.6767167.0728893.998752-.1558579.3220354-.4716803.5364592-.82850001.5625-.35681974.0260409-.7004274-.1402575-.90138929-.436252-3.20403104-4.924243-4.87456026-10.6886128-4.8-16.563 0-15.14 11.421-27 26-27s26 11.86 26 27c.0742414 5.8740314-1.5962697 11.6379906-4.8 16.562zm1.92-33.119c-2.3242509-3.5274881-5.4211979-6.4794367-9.056-8.632 1.8809804-.4571118 3.5592869-1.5204609 4.776-3.026 2.606-3.339 2.135-8.185 1.607-10.785 2.822 1.387 7.553 4.707 7.553 11.32 0 6.336-2.968 9.646-4.88 11.123z" fill="#000"/></g></g></svg>