<?xml version="1.0" encoding="iso-8859-1"?>
<!-- Generator: Adobe Illustrator 19.0.0, SVG Export Plug-In . SVG Version: 6.00 Build 0)  -->
<svg version="1.1" id="Capa_1" xmlns="http://www.w3.org/2000/svg" xmlns:xlink="http://www.w3.org/1999/xlink" x="0px" y="0px"
	 viewBox="0 0 512 512" style="enable-background:new 0 0 512 512;" xml:space="preserve">
<g>
	<path style="fill:#ADACB2;" d="M106,452c-8.291,0-15-6.709-15-15v-60c0-8.291,6.709-15,15-15s15,6.709,15,15v60
		C121,445.291,114.291,452,106,452z"/>
	<path style="fill:#ADACB2;" d="M271,377v60c0,8.399-6.599,15-15,15s-15-6.601-15-15v-60c0-8.401,6.599-15,15-15
		S271,368.599,271,377z"/>
</g>
<g>
	<path style="fill:#8A8791;" d="M407,452c-8.291,0-15-6.709-15-15v-60c0-8.291,6.709-15,15-15s15,6.709,15,15v60
		C422,445.291,415.291,452,407,452z"/>
	<path style="fill:#8A8791;" d="M271,377v60c0,8.399-6.599,15-15,15v-90C264.401,362,271,368.599,271,377z"/>
</g>
<path style="fill:#FDDA41;" d="M375.801,212L352.4,242H160.6l-23.401-30L168.4,70.199C177.7,28.799,213.701,0,256,0
	s79.3,28.799,88.599,70.199L375.801,212z"/>
<path style="fill:#FBBE29;" d="M352.4,242H256V0c42.299,0,79.3,28.799,88.599,70.199L375.801,212L352.4,242z"/>
<path style="fill:#FC003A;" d="M391.7,283.7c0.901,4.499-0.3,9-2.999,12.599c-3.001,3.6-7.2,5.7-11.7,5.7H136
	c-4.501,0-8.699-2.1-11.7-5.7c-2.699-3.6-3.9-8.101-2.999-12.599L137.2,212h238.601L391.7,283.7z"/>
<path style="fill:#E40027;" d="M391.7,283.7c0.901,4.499-0.3,9-2.999,12.599c-3.001,3.6-7.2,5.7-11.7,5.7H256v-90h119.801
	L391.7,283.7z"/>
<path style="fill:#FDDA41;" d="M497,272H15c-8.4,0-15,6.6-15,15c0,5.09,0.37,10.1,1.1,15c7.44,50.82,52.09,90,104.9,90h301
	c52.81,0,96.63-39.18,103.92-90c0.72-4.9,1.08-9.91,1.08-15C512,278.6,505.4,272,497,272z"/>
<g>
	<path style="fill:#19DDC0;" d="M106,512c-24.814,0-45-20.186-45-45s20.186-45,45-45s45,20.186,45,45S130.814,512,106,512z"/>
	<path style="fill:#19DDC0;" d="M256,422c-24.901,0-45,20.099-45,45c0,24.899,20.099,45,45,45s45-20.101,45-45
		C301,442.099,280.9,422,256,422z"/>
</g>
<g>
	<path style="fill:#17CDB3;" d="M407,512c-24.814,0-45-20.186-45-45s20.186-45,45-45s45,20.186,45,45S431.814,512,407,512z"/>
	<path style="fill:#17CDB3;" d="M301,467c0,24.899-20.099,45-45,45v-90C280.9,422,301,442.099,301,467z"/>
</g>
<path style="fill:#FBBE29;" d="M512,287c0,5.09-0.36,10.1-1.08,15c-7.29,50.82-51.11,90-103.92,90H256V272h241
	C505.4,272,512,278.6,512,287z"/>
<path style="fill:#19DDC0;" d="M512,287c0,5.09-0.36,10.1-1.08,15H1.1c-0.73-4.9-1.1-9.91-1.1-15c0-8.4,6.6-15,15-15h482
	C505.4,272,512,278.6,512,287z"/>
<path style="fill:#17CDB3;" d="M512,287c0,5.09-0.36,10.1-1.08,15H256v-30h241C505.4,272,512,278.6,512,287z"/>
<g>
</g>
<g>
</g>
<g>
</g>
<g>
</g>
<g>
</g>
<g>
</g>
<g>
</g>
<g>
</g>
<g>
</g>
<g>
</g>
<g>
</g>
<g>
</g>
<g>
</g>
<g>
</g>
<g>
</g>
</svg>
