<?xml version="1.0" encoding="iso-8859-1"?>
<!-- Generator: Adobe Illustrator 19.0.0, SVG Export Plug-In . SVG Version: 6.00 Build 0)  -->
<svg version="1.1" id="Capa_1" xmlns="http://www.w3.org/2000/svg" xmlns:xlink="http://www.w3.org/1999/xlink" x="0px" y="0px"
	 viewBox="0 0 512 512" style="enable-background:new 0 0 512 512;" xml:space="preserve">
<path style="fill:#606060;" d="M90.004,90.01v391.991c0,16.5-13.5,29.999-29.999,29.999s-29.999-13.5-29.999-29.999V90.01
	L90.004,90.01L90.004,90.01z"/>
<path style="fill:#404040;" d="M90.004,90.01v391.991c0,16.5-13.5,29.999-29.999,29.999V90.01L90.004,90.01L90.004,90.01z"/>
<path style="fill:#CE7937;" d="M506.894,79.81c-15.3,57.598-68.498,100.199-130.898,100.199h-44.999
	c-31.198,0-58.8-16.201-74.998-40.5c-16.199,24.299-43.8,40.5-74.998,40.5h-45.999c-62.099,0-113.997-42.3-129.597-99.298l33-9.3
	c25.198,24.898,65.398,27.899,93.598,6.599c15.599-11.7,35.498-17.999,54.999-17.999c26.998,0,51.898,11.999,68.697,31.799l0.3-0.3
	c16.8-19.501,41.399-31.499,68.399-31.499c19.499,0,38.398,6.299,53.999,17.999c28.199,21.301,69.397,18.3,94.598-6.599
	L506.894,79.81z"/>
<path style="fill:#BF6429;" d="M506.894,79.81c-15.3,57.598-68.498,100.199-130.898,100.199h-44.999
	c-31.198,0-58.8-16.201-74.998-40.5V91.51c16.8-19.501,41.399-31.499,68.399-31.499c19.499,0,38.398,6.299,53.999,17.999
	c28.199,21.301,69.397,18.3,94.598-6.599L506.894,79.81z"/>
<path style="fill:#E6974A;" d="M511.994,15.012v17.1c0,19.199,0.3,26.998-5.099,47.698c-53.1,53.1-106.898,51.9-146.498,22.199
	c-10.499-7.798-22.799-11.999-35.998-11.999c-23.7,0-44.999,13.799-54.599,35.399c-2.1,4.799-7.8,9.3-13.801,9.6h-0.3
	c-6.299,0-12.299-4.801-14.099-9.6c-9.6-21.6-30.9-35.399-54.599-35.399c-13.2,0-26.5,4.2-36.999,11.999
	C110.404,131.71,57.304,132.308,5.406,80.711c-5.7-21-5.4-29.1-5.4-48V15.012c0-6,3.6-11.4,9.3-13.801s12.001-1.199,16.199,3.3
	c34.8,34.5,72.599,34.199,100.499,13.5c15.599-11.7,35.498-17.999,54.999-17.999c31.198,0,58.8,16.199,74.998,40.498
	c16.199-24.299,43.8-40.498,74.998-40.498c19.501,0,38.4,6.299,53.999,17.999c27.899,21,66.698,21,101.499-13.5
	c4.199-4.499,10.499-5.7,16.199-3.3C508.395,3.611,511.994,9.012,511.994,15.012z"/>
<path style="fill:#CE7937;" d="M511.994,15.012v17.1c0,19.199,0.3,26.998-5.099,47.698c-53.1,53.1-106.898,51.9-146.498,22.199
	c-10.499-7.798-22.799-11.999-35.998-11.999c-23.7,0-44.999,13.799-54.599,35.399c-2.1,4.799-7.8,9.3-13.801,9.6V40.511
	c16.199-24.299,43.8-40.498,74.998-40.498c19.501,0,38.4,6.299,53.999,17.999c27.899,21,66.698,21,101.499-13.5
	c4.199-4.499,10.499-5.7,16.199-3.3C508.394,3.611,511.994,9.012,511.994,15.012z"/>
<g>
</g>
<g>
</g>
<g>
</g>
<g>
</g>
<g>
</g>
<g>
</g>
<g>
</g>
<g>
</g>
<g>
</g>
<g>
</g>
<g>
</g>
<g>
</g>
<g>
</g>
<g>
</g>
<g>
</g>
</svg>
