<svg height="512" viewBox="0 0 128 128" width="512" xmlns="http://www.w3.org/2000/svg"><g><circle cx="64" cy="14.63" fill="#f4cb1c" r="8.323" transform="matrix(.924 -.383 .383 .924 -.727 25.605)"/><path d="m76.588 118.469a7.747 7.747 0 0 1 -12.588-.011 7.747 7.747 0 0 1 -12.588.011 7.746 7.746 0 0 1 -12.587-.012 7.737 7.737 0 0 1 -12.586 0 7.755 7.755 0 1 1 0-9.037 7.737 7.737 0 0 1 12.586 0 7.747 7.747 0 0 1 12.587-.013 7.747 7.747 0 0 1 12.588.014 7.746 7.746 0 0 1 12.587-.012 7.747 7.747 0 0 1 12.587.013 7.737 7.737 0 0 1 12.586 0 7.755 7.755 0 1 1 0 9.037 7.737 7.737 0 0 1 -12.586 0 7.746 7.746 0 0 1 -12.587.012z" fill="#dcf2f7"/><path d="m26.241 109.421a7.737 7.737 0 0 1 12.586 0 7.747 7.747 0 0 1 12.587-.013 7.746 7.746 0 0 1 12.586.013 7.746 7.746 0 0 1 12.586-.013 7.747 7.747 0 0 1 12.587.013 7.737 7.737 0 0 1 12.586 0 7.8 7.8 0 0 1 3.068-2.518l-38.616-84.249v-.007a8.126 8.126 0 0 1 -4.418 0v.007l-38.62 84.246a7.8 7.8 0 0 1 3.068 2.521z" fill="#fa163f"/><g fill="#022625"><path d="m30.692 90.5a1.75 1.75 0 0 0 2.32-.862l1.876-4.092a1.75 1.75 0 0 0 -3.182-1.458l-1.875 4.092a1.75 1.75 0 0 0 .861 2.32z"/><path d="m108.052 104.435a9.386 9.386 0 0 0 -2.3.294l-25.076-54.716a1.75 1.75 0 1 0 -3.176 1.458l1.659 3.629-38.053 16.878 9.276-20.236 22.635-10.042 1.276 2.785a1.75 1.75 0 1 0 3.182-1.458l-1.988-4.337-6.919-15.09a10.094 10.094 0 0 0 5.321-7.074c3.778.31 8.09 2.612 9.924 10.689a1.75 1.75 0 0 0 1.7 1.363 1.73 1.73 0 0 0 .388-.044 1.75 1.75 0 0 0 1.32-2.094c-2.421-10.702-8.801-13.127-13.289-13.422a10.024 10.024 0 0 0 -.632-2.248c5.894-2.182 11.332-.97 16.185 3.63a1.75 1.75 0 0 0 2.407-2.54c-7.471-7.085-15.092-6.314-20.539-4.093a10.062 10.062 0 1 0 -11.921 15.833l-24.117 52.612a1.75 1.75 0 0 0 3.185 1.458l.407-.887 41.713-18.5 6.141 13.4-57.148 25.343a1.746 1.746 0 0 0 -3.213-1.355l-4.151 9.057a9.5 9.5 0 1 0 4 16.322 9.471 9.471 0 0 0 12.586 0 9.484 9.484 0 0 0 12.586.009 9.486 9.486 0 0 0 12.579-.009 9.486 9.486 0 0 0 12.586.01 9.487 9.487 0 0 0 12.587-.01 9.471 9.471 0 0 0 12.586 0 9.5 9.5 0 1 0 6.293-16.615zm-50.625-89.805a6.573 6.573 0 1 1 6.573 6.57 6.58 6.58 0 0 1 -6.573-6.57zm6.573 10.07a9.951 9.951 0 0 0 1.19-.077l6.369 13.9-18.975 8.413 10.226-22.31a9.951 9.951 0 0 0 1.19.074zm38.575 81.487a9.425 9.425 0 0 0 -.816.638 9.471 9.471 0 0 0 -12.586 0 9.486 9.486 0 0 0 -12.587-.009 9.484 9.484 0 0 0 -12.586.012 9.6 9.6 0 0 0 -1.062-.8l32.878-14.584zm-75.149-4.365 60.791-26.959 6.141 13.4-36.484 16.18c-.056 0-.111-.008-.167-.008a9.535 9.535 0 0 0 -6.293 2.384 9.486 9.486 0 0 0 -12.587.009 9.471 9.471 0 0 0 -12.586 0 9.581 9.581 0 0 0 -.816-.638zm80.626 18.118a6.019 6.019 0 0 1 -4.872-2.507 1.751 1.751 0 0 0 -2.841 0 5.987 5.987 0 0 1 -9.745 0 1.816 1.816 0 0 0 -2.842 0 6 6 0 0 1 -9.745.012 1.748 1.748 0 0 0 -1.419-.728 1.751 1.751 0 0 0 -1.419.727 6 6 0 0 1 -9.747-.011 1.816 1.816 0 0 0 -2.842 0 6 6 0 0 1 -9.745.012 1.751 1.751 0 0 0 -1.419-.727 1.75 1.75 0 0 0 -1.419.726 6 6 0 0 1 -9.747-.011 1.816 1.816 0 0 0 -2.842 0 5.987 5.987 0 0 1 -9.745 0 1.814 1.814 0 0 0 -2.841 0 6 6 0 1 1 0-6.994 1.749 1.749 0 0 0 2.841 0 5.987 5.987 0 0 1 9.745 0 1.816 1.816 0 0 0 2.842 0 6 6 0 0 1 9.713-.056 1.948 1.948 0 0 0 .119.156 1.751 1.751 0 0 0 2.783-.153 6 6 0 0 1 9.716.053 1.816 1.816 0 0 0 2.842 0 6 6 0 0 1 9.733-.028 1.784 1.784 0 0 0 .2.232 1.75 1.75 0 0 0 2.371.1 1.782 1.782 0 0 0 .332-.376 6 6 0 0 1 9.7.076 1.816 1.816 0 0 0 2.842 0 5.987 5.987 0 0 1 9.745 0 1.814 1.814 0 0 0 2.841 0 6 6 0 1 1 4.872 9.5z"/></g></g></svg>