<svg id="Layer_1" enable-background="new 0 0 64 64" height="512" viewBox="0 0 64 64" width="512" xmlns="http://www.w3.org/2000/svg"><circle cx="32" cy="10" fill="#dcdcdc" r="5.5"/><path d="m32 6.5c2.696 0 4.934 1.941 5.405 4.5.06-.325.095-.658.095-1 0-3.038-2.462-5.5-5.5-5.5s-5.5 2.462-5.5 5.5c0 .342.035.675.095 1 .471-2.559 2.709-4.5 5.405-4.5z" fill="#f0f0e6"/><path d="m32 16c-3.309 0-6-2.691-6-6s2.691-6 6-6 6 2.691 6 6-2.691 6-6 6zm0-11c-2.757 0-5 2.243-5 5s2.243 5 5 5 5-2.243 5-5-2.243-5-5-5z" fill="#785ae6"/><path d="m32 5c-.276 0-.5-.224-.5-.5v-3c0-.276.224-.5.5-.5s.5.224.5.5v3c0 .276-.224.5-.5.5z" fill="#785ae6"/><path d="m54.5 5.5h7v5h-7z" fill="#96aaf0" transform="matrix(-.594 .805 -.805 -.594 98.872 -33.922)"/><path d="m58.066 5.699 3.068 2.264.956-1.295-4.024-2.969-4.156 5.633.956.705z" fill="#a2baff"/><path d="m57.934 12.801c-.104 0-.207-.032-.297-.098l-4.023-2.969c-.223-.164-.27-.477-.105-.699l4.156-5.633c.164-.222.478-.268.699-.105l4.023 2.969c.223.164.27.477.105.699l-4.156 5.633c-.098.132-.249.203-.402.203zm-3.325-3.574 3.219 2.375 3.562-4.828-3.219-2.375z" fill="#785ae6"/><path d="m56.5 6c-.276 0-.5-.224-.5-.5v-4c0-.276.224-.5.5-.5s.5.224.5.5v4c0 .276-.224.5-.5.5z" fill="#785ae6"/><path d="m53.91 9.332 4.024 2.969-12.434 50.199h-44z" fill="#ffe885" opacity=".5"/><path d="m3.471 60.5-1.971 2h44l.495-2z" fill="#dcc864" opacity=".5"/><path d="m45.5 63h-44c-.201 0-.384-.121-.461-.307-.078-.186-.037-.4.104-.544l22.108-22.428c.195-.197.512-.199.707-.005.197.194.199.51.006.707l-21.269 21.577h42.413l.643-2.594c.066-.267.336-.429.605-.365.269.066.432.337.365.605l-.736 2.974c-.055.223-.256.38-.485.38z" fill="#785ae6"/><path d="m47.529 54.809c-.039 0-.08-.005-.12-.015-.269-.066-.432-.337-.365-.605l10.324-41.684-3.406-2.513-24.574 24.93c-.195.197-.512.199-.707.005-.197-.194-.199-.51-.006-.707l24.879-25.239c.175-.178.453-.199.653-.051l4.023 2.969c.163.12.237.326.188.522l-10.403 42.008c-.057.228-.261.38-.486.38z" fill="#785ae6"/><path d="m2.528 5.488h7v5h-7z" fill="#96aaf0" transform="matrix(.594 .805 -.805 .594 8.877 -1.605)"/><path d="m5.962 5.687 3.2 4.338.956-.705-4.156-5.633-4.024 2.969.956 1.295z" fill="#a2baff"/><path d="m6.095 12.789c-.153 0-.305-.07-.402-.203l-4.157-5.633c-.164-.223-.117-.536.106-.7l4.023-2.969c.221-.163.536-.117.699.106l4.156 5.633c.164.222.117.535-.105.699l-4.023 2.969c-.089.066-.194.098-.297.098zm-3.457-6.028 3.562 4.828 3.219-2.375-3.563-4.828z" fill="#785ae6"/><path d="m7.528 5.988c-.276 0-.5-.224-.5-.5v-4c0-.276.224-.5.5-.5s.5.224.5.5v4c0 .276-.223.5-.5.5z" fill="#785ae6"/><path d="m10.118 9.32-4.024 2.968 12.434 50.2h44z" fill="#aad2ff" opacity=".5"/><path d="m18.033 60.488.495 2h44l-1.971-2z" fill="#96aaf0" opacity=".5"/><path d="m62.528 62.988h-44c-.229 0-.43-.157-.485-.38l-.826-3.333c-.066-.268.097-.539.365-.605.271-.067.538.097.605.365l.732 2.953h42.413l-51.266-52.009-3.406 2.514 10.113 40.831c.066.268-.097.539-.365.605-.273.065-.539-.098-.605-.365l-10.194-41.155c-.049-.196.025-.402.188-.522l4.023-2.969c.2-.147.478-.126.653.051l52.41 53.168c.142.144.183.358.104.544-.075.186-.258.307-.459.307z" fill="#785ae6"/><path d="m19 6 1.414 2.586 2.586 1.414-2.586 1.414-1.414 2.586-1.414-2.586-2.586-1.414 2.586-1.414z" fill="#ffe885"/><path d="m17.586 9.586 1.414-1.586 1.414 1.586 2.586.414-2.586-1.414-1.414-2.586-1.414 2.586-2.586 1.414z" fill="#fffa96"/><path d="m19 14.5c-.183 0-.351-.1-.438-.26l-1.344-2.457-2.458-1.344c-.16-.088-.26-.256-.26-.439s.1-.351.26-.438l2.458-1.344 1.344-2.457c.176-.321.701-.321.877 0l1.344 2.457 2.458 1.344c.159.087.259.255.259.438s-.1.351-.26.438l-2.458 1.344-1.344 2.457c-.087.161-.255.261-.438.261zm-2.958-4.5 1.784.976c.084.046.152.115.198.199l.976 1.783.976-1.784c.046-.084.114-.153.198-.199l1.784-.975-1.784-.976c-.084-.046-.152-.115-.198-.199l-.976-1.783-.976 1.784c-.046.084-.114.153-.198.199z" fill="#785ae6"/><path d="m46 11 1.414 2.586 2.586 1.414-2.586 1.414-1.414 2.586-1.414-2.586-2.586-1.414 2.586-1.414z" fill="#ffe885"/><path d="m44.586 14.586 1.414-1.586 1.414 1.586 2.586.414-2.586-1.414-1.414-2.586-1.414 2.586-2.586 1.414z" fill="#fffa96"/><path d="m46 19.5c-.183 0-.351-.1-.438-.26l-1.344-2.457-2.458-1.344c-.16-.088-.26-.256-.26-.439s.1-.351.26-.438l2.458-1.344 1.344-2.457c.176-.321.701-.321.877 0l1.344 2.457 2.458 1.344c.159.087.259.255.259.438s-.1.351-.26.438l-2.458 1.344-1.344 2.457c-.087.161-.255.261-.438.261zm-2.958-4.5 1.784.976c.084.046.152.115.198.199l.976 1.783.976-1.784c.046-.084.114-.153.198-.199l1.784-.975-1.784-.976c-.084-.046-.152-.115-.198-.199l-.976-1.783-.976 1.784c-.046.084-.114.153-.198.199z" fill="#785ae6"/><circle cx="51.5" cy="29.5" fill="#f0f0e6" r="3"/><path d="m51.5 28.5c1.304 0 2.403.837 2.816 2 .112-.314.184-.647.184-1 0-1.657-1.343-3-3-3s-3 1.343-3 3c0 .353.072.686.184 1 .413-1.163 1.512-2 2.816-2z" fill="#fffffa"/><path d="m62.893 42.943-2-5c-.096-.241-.253-.452-.455-.614l-5-4c-.362-.289-2.303-.829-2.938-.829h-2c-.426 0-.83.091-1.197.252l-5.461-10.923c-.37-.741-1.271-1.039-2.013-.671-.741.371-1.041 1.271-.671 2.013l6 12c.086.172.207.31.342.431v7.898 1c0 .983 4.528 9.02 4.528 9.02l-4.712 6.059c-.509.654-.392 1.596.263 2.105.274.213.598.316.92.316.447 0 .89-.199 1.185-.579l3.653-4.697 1.774 4.344c.238.58.798.932 1.39.932.188 0 .381-.036.566-.112.767-.313 1.135-1.189.821-1.956l-2.427-5.941 1.222-1.571c.28-.36.382-.829.274-1.272l-1.503-6.231c.029-.135.045-.274.045-.417v-1-6.279l2.754 2.203 1.854 4.633c.235.587.798.943 1.393.943.186 0 .374-.035.557-.108.769-.307 1.143-1.18.836-1.949zm-10.491 3.557h.349l.503 2.088z" fill="#f0f0e6"/><path d="m57.678 59.418c-.156.2-.359.368-.611.471-.185.075-.378.111-.566.111-.592 0-1.152-.352-1.39-.933l-1.121-2.743c-.291-.712-1.243-.843-1.715-.236l-2.592 3.333c-.294.38-.737.579-1.184.579-.322 0-.646-.103-.92-.316-.073-.057-.138-.121-.198-.188l-.065.083c-.509.654-.392 1.596.263 2.105.274.213.598.316.92.316.447 0 .89-.199 1.185-.579l3.653-4.697 1.774 4.344c.238.58.798.932 1.39.932.252 0 .511-.065.751-.202.667-.381.89-1.245.599-1.956z" fill="#dcdcdc"/><path d="m51.5 33c-1.93 0-3.5-1.57-3.5-3.5s1.57-3.5 3.5-3.5 3.5 1.57 3.5 3.5-1.57 3.5-3.5 3.5zm0-6c-1.379 0-2.5 1.122-2.5 2.5s1.121 2.5 2.5 2.5 2.5-1.122 2.5-2.5-1.121-2.5-2.5-2.5z" fill="#785ae6"/><path d="m62.893 42.943-2-5c-.096-.241-.253-.452-.455-.614l-5-4c-.362-.289-2.303-.829-2.938-.829h-2c-.426 0-.83.091-1.197.252l-5.461-10.923c-.37-.741-1.271-1.039-2.013-.671-.741.371-1.041 1.271-.671 2.013l6 12c.086.172.207.31.342.431v7.898 1c0 .983 4.528 9.02 4.528 9.02l-4.712 6.059c-.509.654-.392 1.596.263 2.105.274.213.598.316.92.316.447 0 .89-.199 1.185-.579l3.653-4.697 1.774 4.344c.238.58.798.932 1.39.932.188 0 .381-.036.566-.112.767-.313 1.135-1.189.821-1.956l-2.427-5.941 1.222-1.571c.28-.36.382-.829.274-1.272l-1.503-6.231c.029-.135.045-.274.045-.417v-1-6.279l2.754 2.203 1.854 4.633c.235.587.798.943 1.393.943.186 0 .374-.035.557-.108.769-.307 1.143-1.18.836-1.949zm-10.491 3.557h.349l.503 2.088z" fill="none" stroke="#785ae6" stroke-linecap="round" stroke-linejoin="round" stroke-miterlimit="10"/><circle cx="12.5" cy="29.5" fill="#f0f0e6" r="3"/><path d="m12.5 28.5c1.304 0 2.403.837 2.816 2 .112-.314.184-.647.184-1 0-1.657-1.343-3-3-3s-3 1.343-3 3c0 .353.072.686.184 1 .413-1.163 1.512-2 2.816-2z" fill="#fffffa"/><path d="m1.943 44.893c.183.073.371.107.557.107.595 0 1.158-.357 1.393-.943l1.854-4.633 2.753-2.203v6.279 1c0 .143.016.282.045.417l-1.503 6.231c-.107.444-.006.912.274 1.272l1.222 1.571-2.427 5.941c-.313.767.055 1.643.821 1.956.186.076.378.112.567.112.592 0 1.152-.352 1.39-.933l1.774-4.344 3.653 4.697c.295.381.738.58 1.185.58.322 0 .646-.103.92-.316.654-.509.771-1.451.263-2.105l-4.712-6.059s4.528-8.037 4.528-9.02v-1-7.898c.134-.122.256-.26.342-.431l6-12c.37-.741.07-1.642-.671-2.013-.742-.368-1.643-.07-2.013.671l-5.461 10.923c-.367-.161-.771-.252-1.197-.252h-2c-.635 0-2.576.54-2.938.829l-5 4c-.202.162-.359.374-.455.614l-2 5c-.307.769.067 1.642.836 1.95zm0 0c.183.073.371.107.557.107.595 0 1.158-.357 1.393-.943l1.854-4.633 2.753-2.203v6.279 1c0 .143.016.282.045.417l-1.503 6.231c-.107.444-.006.912.274 1.272l1.222 1.571-2.427 5.941c-.313.767.055 1.643.821 1.956.186.076.378.112.567.112.592 0 1.152-.352 1.39-.933l1.774-4.344 3.653 4.697c.295.381.738.58 1.185.58.322 0 .646-.103.92-.316.654-.509.771-1.451.263-2.105l-4.712-6.059s4.528-8.037 4.528-9.02v-1-7.898c.134-.122.256-.26.342-.431l6-12c.37-.741.07-1.642-.671-2.013-.742-.368-1.643-.07-2.013.671l-5.461 10.923c-.367-.161-.771-.252-1.197-.252h-2c-.635 0-2.576.54-2.938.829l-5 4c-.202.162-.359.374-.455.614l-2 5c-.307.769.067 1.642.836 1.95zm8.803 3.695.503-2.088h.349z" fill="#f0f0e6"/><path d="m16.619 59.496c-.06.067-.124.131-.198.188-.274.213-.598.316-.92.316-.447 0-.89-.199-1.185-.579l-2.592-3.333c-.472-.607-1.424-.476-1.715.236l-1.121 2.743c-.237.581-.797.933-1.389.933-.188 0-.381-.036-.566-.112-.252-.103-.455-.27-.611-.471l-.173.425c-.29.711-.067 1.575.6 1.956.239.138.498.202.75.202.592 0 1.152-.352 1.39-.933l1.774-4.344 3.653 4.697c.295.381.738.58 1.185.58.322 0 .646-.103.92-.316.654-.509.771-1.451.263-2.105z" fill="#dcdcdc"/><path d="m12.5 33c-1.93 0-3.5-1.57-3.5-3.5s1.57-3.5 3.5-3.5 3.5 1.57 3.5 3.5-1.57 3.5-3.5 3.5zm0-6c-1.379 0-2.5 1.122-2.5 2.5s1.121 2.5 2.5 2.5 2.5-1.122 2.5-2.5-1.121-2.5-2.5-2.5z" fill="#785ae6"/><path d="m1.943 44.893c.183.073.371.107.557.107.595 0 1.158-.357 1.393-.943l1.854-4.633 2.753-2.203v6.279 1c0 .143.016.282.045.417l-1.503 6.231c-.107.444-.006.912.274 1.272l1.222 1.571-2.427 5.941c-.313.767.055 1.643.821 1.956.186.076.378.112.567.112.592 0 1.152-.352 1.39-.933l1.774-4.344 3.653 4.697c.295.381.738.58 1.185.58.322 0 .646-.103.92-.316.654-.509.771-1.451.263-2.105l-4.712-6.059s4.528-8.037 4.528-9.02v-1-7.898c.134-.122.256-.26.342-.431l6-12c.37-.741.07-1.642-.671-2.013-.742-.368-1.643-.07-2.013.671l-5.461 10.923c-.367-.161-.771-.252-1.197-.252h-2c-.635 0-2.576.54-2.938.829l-5 4c-.202.162-.359.374-.455.614l-2 5c-.307.769.067 1.642.836 1.95zm8.803 3.695.503-2.088h.349z" fill="none" stroke="#785ae6" stroke-linecap="round" stroke-linejoin="round" stroke-miterlimit="10"/><circle cx="31.5" cy="29.5" fill="#f0f0e6" r="3"/><path d="m31.5 28.5c1.304 0 2.403.837 2.816 2 .112-.314.184-.647.184-1 0-1.657-1.343-3-3-3s-3 1.343-3 3c0 .353.072.686.184 1 .413-1.163 1.512-2 2.816-2z" fill="#fffffa"/><path d="m44.561 33.439c-.586-.586-1.535-.586-2.121 0l-3.051 3.051-3.951-3.162c-.362-.288-2.303-.828-2.938-.828h-2c-.597 0-1.151.179-1.618.48l-4.103-2.462-1.837-6.431c-.229-.797-1.062-1.257-1.854-1.03-.797.228-1.258 1.058-1.03 1.854l2 7c.104.366.345.678.671.874l4.771 2.863v7.852.853l-3.369 7.535c-.138.307-.168.65-.086.976l2 8c.17.681.782 1.136 1.454 1.136.12 0 .243-.015.365-.045.804-.201 1.292-1.015 1.091-1.819l-1.874-7.497 2.745-6.139h2.429l.756 6.182c.015.118.043.233.085.345l3 8c.225.602.797.973 1.404.973.175 0 .354-.031.526-.096.776-.291 1.169-1.155.878-1.931l-2.938-7.833s-.467-6.383-.467-6.641v-2-6.279l3.062 2.45c.277.222.609.33.939.33.386 0 .77-.148 1.061-.439l4-4c.585-.586.585-1.536 0-2.122z" fill="#f0f0e6"/><path d="m28.456 58.138c.2.803-.288 1.617-1.091 1.817-.123.031-.246.045-.366.045-.672 0-1.284-.455-1.454-1.137l.5 2c.17.682.782 1.137 1.454 1.137.12 0 .243-.015.365-.045.804-.201 1.292-1.015 1.091-1.819z" fill="#dcdcdc"/><path d="m38.466 58.803c-.101.487-.439.914-.939 1.101-.173.066-.352.096-.527.096-.607 0-1.179-.372-1.404-.974l.5 2c.225.603.797.974 1.404.974.175 0 .354-.031.526-.096.776-.291 1.169-1.155.878-1.931z" fill="#dcdcdc"/><g fill="#785ae6"><path d="m31.5 33c-1.93 0-3.5-1.57-3.5-3.5s1.57-3.5 3.5-3.5 3.5 1.57 3.5 3.5-1.57 3.5-3.5 3.5zm0-6c-1.379 0-2.5 1.122-2.5 2.5s1.121 2.5 2.5 2.5 2.5-1.122 2.5-2.5-1.121-2.5-2.5-2.5z"/><path d="m37.5 62.5c-.829 0-1.582-.521-1.872-1.298l-3-8c-.056-.146-.094-.301-.113-.458l-.703-5.744h-1.662l-2.542 5.686 1.832 7.33c.13.518.05 1.056-.226 1.514-.274.458-.711.782-1.229.912-1.043.261-2.163-.404-2.426-1.456l-2-8c-.108-.432-.067-.895.115-1.302l3.326-7.438v-8.314l-4.528-2.717c-.438-.262-.755-.676-.895-1.166l-2-7c-.147-.514-.085-1.054.175-1.521.259-.467.685-.805 1.198-.952 1.063-.301 2.168.312 2.473 1.374l1.783 6.241 3.68 2.208c.501-.262 1.052-.399 1.614-.399h2c.714 0 2.776.561 3.249.938l3.603 2.883 2.734-2.734c.779-.78 2.049-.78 2.828 0 .378.377.586.88.586 1.414s-.208 1.037-.586 1.414l-4 4c-.696.697-1.894.763-2.664.148l-2.25-1.8v7.237c.004.233.275 4.006.46 6.532l2.912 7.765c.188.5.17 1.044-.051 1.53-.222.486-.619.857-1.12 1.045-.223.085-.46.128-.701.128zm-7.674-16.5h2.429c.253 0 .466.188.496.439l.756 6.182c.01.078.029.155.057.229l3 8c.188.501.786.773 1.286.585.252-.094.45-.28.561-.522.11-.243.12-.515.026-.765l-2.938-7.833c-.018-.045-.027-.092-.031-.139-.078-1.068-.468-6.414-.468-6.676v-8.279c0-.192.11-.367.283-.451.174-.084.379-.06.529.06l3.063 2.45c.385.309.984.274 1.332-.073l4-4c.188-.189.293-.44.293-.707s-.104-.518-.293-.707c-.379-.378-1.035-.378-1.414 0l-3.051 3.051c-.179.18-.467.196-.666.037l-3.951-3.162c-.272-.202-2.073-.719-2.625-.719h-2c-.475 0-.94.139-1.348.4-.159.104-.364.106-.527.008l-4.103-2.461c-.109-.065-.189-.169-.224-.292l-1.837-6.431c-.152-.53-.705-.835-1.236-.687-.257.074-.47.243-.6.476-.13.234-.161.504-.088.761l2 7c.07.244.229.451.448.583l4.771 2.863c.152.091.244.253.244.429v8.704c0 .07-.015.14-.044.204l-3.369 7.535c-.091.204-.111.434-.058.65l2.001 8.001c.132.526.686.861 1.212.728.26-.065.479-.227.615-.456.138-.229.178-.498.112-.757l-1.874-7.498c-.027-.108-.017-.223.029-.325l2.745-6.139c.081-.18.26-.296.457-.296z"/><path d="m55.462 54.492c-.197 0-.384-.117-.463-.311l-1.208-2.958c-.104-.255.019-.547.273-.652.257-.104.548.018.652.274l1.208 2.958c.104.255-.019.547-.273.652-.062.025-.126.037-.189.037z"/><path d="m8.538 54.492c-.063 0-.127-.012-.189-.037-.255-.104-.378-.396-.273-.652l1.208-2.958c.104-.257.395-.378.652-.274.255.104.378.396.273.652l-1.208 2.958c-.079.194-.266.311-.463.311z"/></g></svg>