<?xml version="1.0" encoding="iso-8859-1"?>
<!-- Generator: Adobe Illustrator 19.0.0, SVG Export Plug-In . SVG Version: 6.00 Build 0)  -->
<svg version="1.1" id="Capa_1" xmlns="http://www.w3.org/2000/svg" xmlns:xlink="http://www.w3.org/1999/xlink" x="0px" y="0px"
	 viewBox="0 0 512.001 512.001" style="enable-background:new 0 0 512.001 512.001;" xml:space="preserve">
<path style="fill:#F7C981;" d="M504.49,449.002c0,6.609-5.407,12.016-12.016,12.016H19.526c-6.609,0-12.016-5.407-12.016-12.016V63
	c0-6.609,5.407-12.016,12.016-12.016h472.949c6.609,0,12.016,5.407,12.016,12.016v386.002H504.49z"/>
<path style="fill:#EFB76C;" d="M504.487,62.997v386.008c0,6.609-5.407,12.016-12.016,12.016h-29.198V50.981h29.198
	C499.08,50.981,504.487,56.388,504.487,62.997z"/>
<circle style="fill:#5E6C70;" cx="211.7" cy="256.001" r="162.46"/>
<path style="fill:#4F5D60;" d="M374.155,256.001c0,89.728-72.736,162.464-162.464,162.464c-6.048,0-12.016-0.33-17.894-0.981
	c81.297-8.902,144.56-77.802,144.56-161.482s-63.263-152.581-144.56-161.483c5.878-0.651,11.846-0.981,17.894-0.981
	C301.42,93.537,374.155,166.273,374.155,256.001z"/>
<circle style="fill:#ECF1F7;" cx="211.7" cy="256.001" r="64.97"/>
<path style="fill:#DCDEE0;" d="M276.667,256.001c0,35.877-29.088,64.966-64.976,64.966c-4.586,0-9.052-0.471-13.368-1.382
	c29.469-6.158,51.608-32.293,51.608-63.584s-22.139-57.426-51.608-63.584c4.316-0.911,8.781-1.382,13.368-1.382
	C247.579,191.036,276.667,220.124,276.667,256.001z"/>
<circle style="fill:#E84661;" cx="211.7" cy="256.001" r="15.827"/>
<path style="fill:#FFE269;" d="M389.002,392.864L389.002,392.864c-9.897-7.604-11.756-21.792-4.152-31.69l20.154-26.232
	c1.561-2.032,4.475-2.414,6.507-0.853l28.482,21.883c2.032,1.561,2.414,4.475,0.853,6.507l-20.154,26.232
	C413.088,398.61,398.9,400.468,389.002,392.864z"/>
<path style="fill:#F7D443;" d="M440.843,362.481l-20.146,26.235c-7.61,9.893-21.799,11.755-31.692,4.145
	c-2.203-1.692-4.005-3.705-5.397-5.928c9.312,4.135,20.587,1.542,27.076-6.899l20.147-26.235c0.981-1.272,1.192-2.894,0.711-4.316
	l8.451,6.489C442.025,357.535,442.405,360.448,440.843,362.481z"/>
<path style="fill:#FFE269;" d="M467.008,189.8h-35.186c-2.765,0-5.007-2.242-5.007-5.007v-65.329c0-2.765,2.242-5.007,5.007-5.007
	h35.186c2.765,0,5.007,2.242,5.007,5.007v65.329C472.015,187.559,469.773,189.8,467.008,189.8z"/>
<path style="fill:#F7D443;" d="M472.014,119.461v65.336c0,2.764-2.243,5.007-5.007,5.007h-17.593v-75.349h17.593
	C469.771,114.455,472.014,116.698,472.014,119.461z"/>
<path d="M504.49,204.433c4.148,0,7.51-3.362,7.51-7.51V63c0-10.767-8.76-19.526-19.526-19.526H19.526C8.759,43.475,0,52.234,0,63
	v386.001c0,10.767,8.759,19.526,19.526,19.526h472.949c10.766,0,19.526-8.759,19.526-19.526V242.984c0-4.148-3.362-7.51-7.51-7.51
	s-7.51,3.362-7.51,7.51v206.018c0,2.443-2.063,4.506-4.506,4.506H19.526c-2.443,0-4.506-2.063-4.506-4.506V63
	c0-2.443,2.063-4.506,4.506-4.506h472.949c2.443,0,4.506,2.063,4.506,4.506v133.923C496.98,201.071,500.342,204.433,504.49,204.433z
	"/>
<path d="M456.926,312.184V197.31h10.083c6.902,0,12.516-5.615,12.516-12.516v-65.33c0-6.902-5.615-12.516-12.516-12.516h-35.186
	c-6.902,0-12.517,5.615-12.517,12.516v65.33c0,6.902,5.615,12.516,12.517,12.516h10.083v112.572l-16.954,25.064l-8.865-6.811
	c-2.574-1.977-5.755-2.834-8.983-2.413c-3.218,0.421-6.079,2.071-8.057,4.645l-20.153,26.231
	c-10.115,13.165-7.633,32.105,5.532,42.22c5.458,4.193,11.907,6.222,18.31,6.222c9.041,0,17.989-4.046,23.91-11.753l20.153-26.232
	c4.082-5.312,3.08-12.955-2.232-17.038l-7.685-5.904l18.752-27.722C456.477,315.149,456.926,313.684,456.926,312.184z
	 M434.325,121.968h30.179v60.323h-30.179V121.968z M414.737,384.136c-5.069,6.598-14.561,7.841-21.16,2.773
	c-6.598-5.069-7.842-14.561-2.772-21.159l18.406-23.956l23.931,18.387L414.737,384.136z"/>
<path d="M83.062,156.477c-3.391-2.385-8.076-1.572-10.464,1.82C52.402,187,41.727,220.785,41.727,256.001
	c0,93.721,76.248,169.969,169.969,169.969s169.969-76.248,169.969-169.969S305.418,86.032,211.696,86.032
	c-38.714,0-76.594,13.363-106.665,37.628c-3.228,2.605-3.733,7.333-1.128,10.561c2.604,3.228,7.332,3.733,10.56,1.128
	c27.408-22.116,61.939-34.297,97.232-34.297c85.439,0,154.95,69.51,154.95,154.95s-69.51,154.95-154.95,154.95
	s-154.95-69.51-154.95-154.95c0-32.105,9.729-62.902,28.136-89.061C87.269,163.548,86.454,158.864,83.062,156.477z"/>
<path d="M211.696,328.481c39.966,0,72.481-32.514,72.481-72.48s-32.515-72.48-72.481-72.48s-72.48,32.514-72.48,72.48
	S171.73,328.481,211.696,328.481z M211.696,198.541c31.684,0,57.461,25.777,57.461,57.46s-25.777,57.46-57.461,57.46
	s-57.46-25.777-57.46-57.46S180.012,198.541,211.696,198.541z"/>
<path d="M211.696,119.974c-53.777,0-102.612,31.774-124.412,80.948c-1.681,3.792,0.03,8.228,3.822,9.909
	c0.99,0.439,2.023,0.646,3.04,0.646c2.879,0,5.627-1.666,6.869-4.468c19.395-43.748,62.84-72.016,110.681-72.016
	c4.148,0,7.51-3.362,7.51-7.51C219.206,123.337,215.844,119.974,211.696,119.974z"/>
<path d="M219.206,156.475c0-4.148-3.362-7.51-7.51-7.51c-43.114,0-81.826,25.66-98.622,65.372c-1.615,3.82,0.172,8.226,3.992,9.842
	c0.955,0.404,1.946,0.595,2.922,0.595c2.927,0,5.708-1.721,6.92-4.587c14.44-34.142,47.722-56.202,84.788-56.202
	C215.844,163.984,219.206,160.622,219.206,156.475z"/>
<path d="M211.696,279.337c12.867,0,23.336-10.469,23.336-23.336c0-12.867-10.469-23.336-23.336-23.336
	c-12.868,0-23.336,10.469-23.336,23.336C188.36,268.868,198.829,279.337,211.696,279.337z M211.696,247.684
	c4.586,0,8.317,3.731,8.317,8.317c0,4.586-3.731,8.317-8.317,8.317s-8.317-3.731-8.317-8.317
	C203.379,251.415,207.11,247.684,211.696,247.684z"/>
<g>
</g>
<g>
</g>
<g>
</g>
<g>
</g>
<g>
</g>
<g>
</g>
<g>
</g>
<g>
</g>
<g>
</g>
<g>
</g>
<g>
</g>
<g>
</g>
<g>
</g>
<g>
</g>
<g>
</g>
</svg>
